999
dxflib 3.26.4.0
  0
SECTION
  2
HEADER
  9
$ACADVER
  1
AC1015
  9
$HANDSEED
  5
FFFF
  9
$DIMADEC
 70
0
  9
$DIMASZ
 40
0.125
  9
$DIMATFIT
 70
0
  9
$DIMAUNIT
 70
0
  9
$DIMAZIN
 70
2
  9
$DIMBLK
  1
0
  9
$DIMBLK1
  1
0
  9
$DIMBLK2
  1
0
  9
$DIMDEC
 70
4
  9
$DIMDLI
 40
0.25
  9
$DIMDSEP
 70
46
  9
$DIMEXE
 40
0.0625
  9
$DIMEXO
 40
0.03125
  9
$DIMGAP
 40
0.03125
  9
$DIMLFAC
 40
1.0
  9
$DIMLUNIT
 70
2
  9
$DIMSCALE
 40
1.0
  9
$DIMTAD
 70
1
  9
$DIMTIH
 70
0
  9
$DIMTSZ
 40
0.0
  9
$DIMTXT
 40
0.125
  9
$DIMZIN
 70
8
  9
$DWGCODEPAGE
  3
ANSI_1252
  9
$INSUNITS
 70
4
  9
$LTSCALE
 40
1.0
  9
$MAXACTVP
 70
64
  9
$MEASUREMENT
 70
1
  9
$MIRRTEXT
 70
0
  9
$PDMODE
 70
0
  9
$PDSIZE
 40
0.0
  0
ENDSEC
  0
SECTION
  2
TABLES
  0
TABLE
  2
VPORT
  5
8
100
AcDbSymbolTable
 70
1
  0
VPORT
  5
30
100
AcDbSymbolTableRecord
100
AcDbViewportTableRecord
  2
*Active
 70
0
 10
0.0
 20
0.0
 11
1.0
 21
1.0
 12
286.3055555555554861
 22
148.5
 13
0.0
 23
0.0
 14
10.0
 24
10.0
 15
10.0
 25
10.0
 16
0.0
 26
0.0
 36
1.0
 17
0.0
 27
0.0
 37
0.0
 40
297.0
 41
1.92798353909465
 42
50.0
 43
0.0
 44
0.0
 50
0.0
 51
0.0
 71
0
 72
100
 73
1
 74
3
 75
1
 76
1
 77
0
 78
0
281
0
 65
1
110
0.0
120
0.0
130
0.0
111
1.0
121
0.0
131
0.0
112
0.0
122
1.0
132
0.0
 79
0
146
0.0
  0
ENDTAB
  0
TABLE
  2
LTYPE
  5
5
100
AcDbSymbolTable
 70
41
  0
LTYPE
  5
16
100
AcDbSymbolTableRecord
100
AcDbLinetypeTableRecord
  2
Continuous
 70
0
  3
Solid line
 72
65
 73
0
 40
0.0
  0
LTYPE
  5
31
100
AcDbSymbolTableRecord
100
AcDbLinetypeTableRecord
  2
ACAD_ISO12W100
 70
0
  3
ISO dash double-dot __ . . __ . . __ . . __ . . 
 72
65
 73
6
 40
21.0
 49
12.0
 74
0
 49
-2.9500000000000002
 74
0
 49
0.1
 74
0
 49
-2.9000000000000004
 74
0
 49
0.1
 74
0
 49
-2.9500000000000002
 74
0
  0
LTYPE
  5
32
100
AcDbSymbolTableRecord
100
AcDbLinetypeTableRecord
  2
ACAD_ISO04W100
 70
0
  3
ISO long-dash dot ____ . ____ . ____ . ____ . _
 72
65
 73
4
 40
30.0
 49
24.0
 74
0
 49
-2.9500000000000002
 74
0
 49
0.1
 74
0
 49
-2.9500000000000002
 74
0
  0
LTYPE
  5
33
100
AcDbSymbolTableRecord
100
AcDbLinetypeTableRecord
  2
DOT2
 70
0
  3
Dot (.5x) ........................................
 72
65
 73
2
 40
3.1749999999999998
 49
0.1
 74
0
 49
-3.0749999999999997
 74
0
  0
LTYPE
  5
34
100
AcDbSymbolTableRecord
100
AcDbLinetypeTableRecord
  2
DASHDOT2
 70
0
  3
Dash dot (.5x) _._._._._._._._._._._._._._._.
 72
65
 73
4
 40
12.6999999999999993
 49
6.3499999999999996
 74
0
 49
-3.125
 74
0
 49
0.1
 74
0
 49
-3.125
 74
0
  0
LTYPE
  5
35
100
AcDbSymbolTableRecord
100
AcDbLinetypeTableRecord
  2
ACAD_ISO11W100
 70
0
  3
ISO double-dash dot __ __ . __ __ . __ __ . __ _
 72
65
 73
6
 40
33.0
 49
12.0
 74
0
 49
-3.0
 74
0
 49
12.0
 74
0
 49
-2.9500000000000002
 74
0
 49
0.1
 74
0
 49
-2.9500000000000002
 74
0
  0
LTYPE
  5
36
100
AcDbSymbolTableRecord
100
AcDbLinetypeTableRecord
  2
DIVIDE2
 70
0
  3
Divide (.5x) __..__..__..__..__..__..__..__.._
 72
65
 73
6
 40
15.8749999999999982
 49
6.3499999999999996
 74
0
 49
-3.125
 74
0
 49
0.1
 74
0
 49
-3.0750000000000002
 74
0
 49
0.1
 74
0
 49
-3.125
 74
0
  0
LTYPE
  5
37
100
AcDbSymbolTableRecord
100
AcDbLinetypeTableRecord
  2
ACAD_ISO03W100
 70
0
  3
ISO dash space __    __    __    __    __    __
 72
65
 73
2
 40
30.0
 49
12.0
 74
0
 49
-18.0
 74
0
  0
LTYPE
  5
38
100
AcDbSymbolTableRecord
100
AcDbLinetypeTableRecord
  2
HIDDEN2
 70
0
  3
Hidden (.5x) _ _ _ _ _ _ _ _ _ _ _ _ _ _ _ _ _ 
 72
65
 73
2
 40
4.7624999999999993
 49
3.1749999999999998
 74
0
 49
-1.5874999999999999
 74
0
  0
LTYPE
  5
39
100
AcDbSymbolTableRecord
100
AcDbLinetypeTableRecord
  2
ACAD_ISO10W100
 70
0
  3
ISO dash dot __ . __ . __ . __ . __ . __ . __ . 
 72
65
 73
4
 40
18.0
 49
12.0
 74
0
 49
-2.9500000000000002
 74
0
 49
0.1
 74
0
 49
-2.9500000000000002
 74
0
  0
LTYPE
  5
3A
100
AcDbSymbolTableRecord
100
AcDbLinetypeTableRecord
  2
ACAD_ISO02W100
 70
0
  3
ISO dash __ __ __ __ __ __ __ __ __ __ __ __ __
 72
65
 73
2
 40
15.0
 49
12.0
 74
0
 49
-3.0
 74
0
  0
LTYPE
  5
3B
100
AcDbSymbolTableRecord
100
AcDbLinetypeTableRecord
  2
DOTX2
 70
0
  3
Dot (2x) .  .  .  .  .  .  .  .  .  .  .  .  .  .
 72
65
 73
2
 40
12.6999999999999993
 49
0.1
 74
0
 49
-12.5999999999999996
 74
0
  0
LTYPE
  5
14
100
AcDbSymbolTableRecord
100
AcDbLinetypeTableRecord
  2
BYBLOCK
 70
0
  3

 72
65
 73
0
 40
0.0
  0
LTYPE
  5
3C
100
AcDbSymbolTableRecord
100
AcDbLinetypeTableRecord
  2
CENTERX2
 70
0
  3
Center (2x) ________  __  ________  __  _____
 72
65
 73
4
 40
101.6000000000000085
 49
63.5
 74
0
 49
-12.6999999999999993
 74
0
 49
12.6999999999999993
 74
0
 49
-12.6999999999999993
 74
0
  0
LTYPE
  5
3D
100
AcDbSymbolTableRecord
100
AcDbLinetypeTableRecord
  2
CENTER
 70
0
  3
Center ____ _ ____ _ ____ _ ____ _ ____ _ ____
 72
65
 73
4
 40
50.8000000000000043
 49
31.75
 74
0
 49
-6.3499999999999996
 74
0
 49
6.3499999999999996
 74
0
 49
-6.3499999999999996
 74
0
  0
LTYPE
  5
3E
100
AcDbSymbolTableRecord
100
AcDbLinetypeTableRecord
  2
DIVIDEX2
 70
0
  3
Divide (2x) ________  .  .  ________  .  .  _
 72
65
 73
6
 40
63.5
 49
25.3999999999999986
 74
0
 49
-12.6499999999999986
 74
0
 49
0.1
 74
0
 49
-12.5999999999999979
 74
0
 49
0.1
 74
0
 49
-12.6499999999999986
 74
0
  0
LTYPE
  5
3F
100
AcDbSymbolTableRecord
100
AcDbLinetypeTableRecord
  2
PHANTOM
 70
0
  3
Phantom ______  __  __  ______  __  __  ______ 
 72
65
 73
6
 40
63.5000000000000071
 49
31.75
 74
0
 49
-6.3499999999999996
 74
0
 49
6.3499999999999996
 74
0
 49
-6.3499999999999996
 74
0
 49
6.3499999999999996
 74
0
 49
-6.3499999999999996
 74
0
  0
LTYPE
  5
40
100
AcDbSymbolTableRecord
100
AcDbLinetypeTableRecord
  2
DIVIDE
 70
0
  3
Divide ____ . . ____ . . ____ . . ____ . . ____
 72
65
 73
6
 40
31.7500000000000036
 49
12.6999999999999993
 74
0
 49
-6.2999999999999998
 74
0
 49
0.1
 74
0
 49
-6.25
 74
0
 49
0.1
 74
0
 49
-6.2999999999999998
 74
0
  0
LTYPE
  5
41
100
AcDbSymbolTableRecord
100
AcDbLinetypeTableRecord
  2
DASHED
 70
0
  3
Dashed __ __ __ __ __ __ __ __ __ __ __ __ __ _
 72
65
 73
2
 40
19.0499999999999972
 49
12.6999999999999993
 74
0
 49
-6.3499999999999996
 74
0
  0
LTYPE
  5
42
100
AcDbSymbolTableRecord
100
AcDbLinetypeTableRecord
  2
ACAD_ISO09W100
 70
0
  3
ISO long-dash double-short-dash ____ __ __ ____
 72
65
 73
6
 40
45.0
 49
24.0
 74
0
 49
-3.0
 74
0
 49
6.0
 74
0
 49
-3.0
 74
0
 49
6.0
 74
0
 49
-3.0
 74
0
  0
LTYPE
  5
43
100
AcDbSymbolTableRecord
100
AcDbLinetypeTableRecord
  2
DOT
 70
0
  3
Dot . . . . . . . . . . . . . . . . . . . . . . . .
 72
65
 73
2
 40
6.3499999999999996
 49
0.1
 74
0
 49
-6.25
 74
0
  0
LTYPE
  5
44
100
AcDbSymbolTableRecord
100
AcDbLinetypeTableRecord
  2
BORDERX2
 70
0
  3
Border (2x) ____  ____  .  ____  ____  .  ___
 72
65
 73
6
 40
88.8999999999999773
 49
25.3999999999999986
 74
0
 49
-12.6999999999999993
 74
0
 49
25.3999999999999986
 74
0
 49
-12.6499999999999986
 74
0
 49
0.1
 74
0
 49
-12.6499999999999986
 74
0
  0
LTYPE
  5
45
100
AcDbSymbolTableRecord
100
AcDbLinetypeTableRecord
  2
BORDER2
 70
0
  3
Border (.5x) __.__.__.__.__.__.__.__.__.__.__.
 72
65
 73
6
 40
22.2250000000000014
 49
6.3499999999999996
 74
0
 49
-3.1749999999999998
 74
0
 49
6.3499999999999996
 74
0
 49
-3.125
 74
0
 49
0.1
 74
0
 49
-3.125
 74
0
  0
LTYPE
  5
46
100
AcDbSymbolTableRecord
100
AcDbLinetypeTableRecord
  2
DASHED2
 70
0
  3
Dashed (.5x) _ _ _ _ _ _ _ _ _ _ _ _ _ _ _ _ _ 
 72
65
 73
2
 40
9.5249999999999986
 49
6.3499999999999996
 74
0
 49
-3.1749999999999998
 74
0
  0
LTYPE
  5
47
100
AcDbSymbolTableRecord
100
AcDbLinetypeTableRecord
  2
ACAD_ISO08W100
 70
0
  3
ISO long-dash short-dash ____ __ ____ __ ____ _
 72
65
 73
4
 40
36.0
 49
24.0
 74
0
 49
-3.0
 74
0
 49
6.0
 74
0
 49
-3.0
 74
0
  0
LTYPE
  5
48
100
AcDbSymbolTableRecord
100
AcDbLinetypeTableRecord
  2
PHANTOM2
 70
0
  3
Phantom (.5x) ___ _ _ ___ _ _ ___ _ _ ___ _ _
 72
65
 73
6
 40
31.7500000000000036
 49
15.875
 74
0
 49
-3.1749999999999998
 74
0
 49
3.1749999999999998
 74
0
 49
-3.1749999999999998
 74
0
 49
3.1749999999999998
 74
0
 49
-3.1749999999999998
 74
0
  0
LTYPE
  5
49
100
AcDbSymbolTableRecord
100
AcDbLinetypeTableRecord
  2
DASHDOTX2
 70
0
  3
Dash dot (2x) ____  .  ____  .  ____  .  ___
 72
65
 73
4
 40
50.7999999999999972
 49
25.3999999999999986
 74
0
 49
-12.6499999999999986
 74
0
 49
0.1
 74
0
 49
-12.6499999999999986
 74
0
  0
LTYPE
  5
4A
100
AcDbSymbolTableRecord
100
AcDbLinetypeTableRecord
  2
ACAD_ISO15W100
 70
0
  3
ISO double-dash triple-dot __ __ . . . __ __ . .
 72
65
 73
10
 40
39.0000000000000071
 49
12.0
 74
0
 49
-3.0
 74
0
 49
12.0
 74
0
 49
-2.9500000000000002
 74
0
 49
0.1
 74
0
 49
-2.9000000000000004
 74
0
 49
0.1
 74
0
 49
-2.9000000000000004
 74
0
 49
0.1
 74
0
 49
-2.9500000000000002
 74
0
  0
LTYPE
  5
4B
100
AcDbSymbolTableRecord
100
AcDbLinetypeTableRecord
  2
BORDER
 70
0
  3
Border __ __ . __ __ . __ __ . __ __ . __ __ .
 72
65
 73
6
 40
44.4499999999999957
 49
12.6999999999999993
 74
0
 49
-6.3499999999999996
 74
0
 49
12.6999999999999993
 74
0
 49
-6.2999999999999998
 74
0
 49
0.1
 74
0
 49
-6.2999999999999998
 74
0
  0
LTYPE
  5
15
100
AcDbSymbolTableRecord
100
AcDbLinetypeTableRecord
  2
BYLAYER
 70
0
  3

 72
65
 73
0
 40
0.0
  0
LTYPE
  5
4C
100
AcDbSymbolTableRecord
100
AcDbLinetypeTableRecord
  2
ACAD_ISO07W100
 70
0
  3
ISO dot . . . . . . . . . . . . . . . . . . . . 
 72
65
 73
2
 40
3.0
 49
0.1
 74
0
 49
-2.8999999999999999
 74
0
  0
LTYPE
  5
4D
100
AcDbSymbolTableRecord
100
AcDbLinetypeTableRecord
  2
HIDDENX2
 70
0
  3
Hidden (2x) ____ ____ ____ ____ ____ ____ ____ 
 72
65
 73
2
 40
19.0499999999999972
 49
12.6999999999999993
 74
0
 49
-6.3499999999999996
 74
0
  0
LTYPE
  5
4E
100
AcDbSymbolTableRecord
100
AcDbLinetypeTableRecord
  2
CENTER2
 70
0
  3
Center (.5x) ___ _ ___ _ ___ _ ___ _ ___ _ ___
 72
65
 73
4
 40
28.5750000000000028
 49
19.0500000000000007
 74
0
 49
-3.1749999999999998
 74
0
 49
3.1749999999999998
 74
0
 49
-3.1749999999999998
 74
0
  0
LTYPE
  5
4F
100
AcDbSymbolTableRecord
100
AcDbLinetypeTableRecord
  2
DASHEDX2
 70
0
  3
Dashed (2x) ____  ____  ____  ____  ____  ___
 72
65
 73
2
 40
38.0999999999999943
 49
25.3999999999999986
 74
0
 49
-12.6999999999999993
 74
0
  0
LTYPE
  5
50
100
AcDbSymbolTableRecord
100
AcDbLinetypeTableRecord
  2
PHANTOMX2
 70
0
  3
Phantom (2x) ____________    ____    ____   _
 72
65
 73
6
 40
127.0000000000000142
 49
63.5
 74
0
 49
-12.6999999999999993
 74
0
 49
12.6999999999999993
 74
0
 49
-12.6999999999999993
 74
0
 49
12.6999999999999993
 74
0
 49
-12.6999999999999993
 74
0
  0
LTYPE
  5
51
100
AcDbSymbolTableRecord
100
AcDbLinetypeTableRecord
  2
ACAD_ISO14W100
 70
0
  3
ISO dash triple-dot __ . . . __ . . . __ . . . _
 72
65
 73
8
 40
24.0000000000000036
 49
12.0
 74
0
 49
-2.9500000000000002
 74
0
 49
0.1
 74
0
 49
-2.9000000000000004
 74
0
 49
0.1
 74
0
 49
-2.9000000000000004
 74
0
 49
0.1
 74
0
 49
-2.9500000000000002
 74
0
  0
LTYPE
  5
52
100
AcDbSymbolTableRecord
100
AcDbLinetypeTableRecord
  2
ACAD_ISO06W100
 70
0
  3
ISO long-dash triple-dot ____ ... ____ ... ____
 72
65
 73
8
 40
36.0000000000000071
 49
24.0
 74
0
 49
-2.9500000000000002
 74
0
 49
0.1
 74
0
 49
-2.9000000000000004
 74
0
 49
0.1
 74
0
 49
-2.9000000000000004
 74
0
 49
0.1
 74
0
 49
-2.9500000000000002
 74
0
  0
LTYPE
  5
53
100
AcDbSymbolTableRecord
100
AcDbLinetypeTableRecord
  2
HIDDEN
 70
0
  3
Hidden __ __ __ __ __ __ __ __ __ __ __ __ __ __
 72
65
 73
2
 40
9.5249999999999986
 49
6.3499999999999996
 74
0
 49
-3.1749999999999998
 74
0
  0
LTYPE
  5
54
100
AcDbSymbolTableRecord
100
AcDbLinetypeTableRecord
  2
DASHDOT
 70
0
  3
Dash dot __ . __ . __ . __ . __ . __ . __ . __
 72
65
 73
4
 40
25.4000000000000021
 49
12.6999999999999993
 74
0
 49
-6.2999999999999998
 74
0
 49
0.1
 74
0
 49
-6.2999999999999998
 74
0
  0
LTYPE
  5
55
100
AcDbSymbolTableRecord
100
AcDbLinetypeTableRecord
  2
ACAD_ISO13W100
 70
0
  3
ISO double-dash double-dot __ __ . . __ __ . . _
 72
65
 73
8
 40
36.0000000000000071
 49
12.0
 74
0
 49
-3.0
 74
0
 49
12.0
 74
0
 49
-2.9500000000000002
 74
0
 49
0.1
 74
0
 49
-2.9000000000000004
 74
0
 49
0.1
 74
0
 49
-2.9500000000000002
 74
0
  0
LTYPE
  5
56
100
AcDbSymbolTableRecord
100
AcDbLinetypeTableRecord
  2
ACAD_ISO05W100
 70
0
  3
ISO long-dash double-dot ____ .. ____ .. ____ . 
 72
65
 73
6
 40
33.0000000000000071
 49
24.0
 74
0
 49
-2.9500000000000002
 74
0
 49
0.1
 74
0
 49
-2.9000000000000004
 74
0
 49
0.1
 74
0
 49
-2.9500000000000002
 74
0
  0
ENDTAB
  0
TABLE
  2
LAYER
  5
2
100
AcDbSymbolTable
 70
6
  0
LAYER
  5
57
100
AcDbSymbolTableRecord
100
AcDbLayerTableRecord
  2
Flat Layout
 70
0
 62
2
420
16776960
  6
Continuous
370
25
390
F
  0
LAYER
  5
10
100
AcDbSymbolTableRecord
100
AcDbLayerTableRecord
  2
0
 70
0
 62
7
420
16777215
  6
Continuous
370
25
390
F
  0
LAYER
  5
58
100
AcDbSymbolTableRecord
100
AcDbLayerTableRecord
  2
Folded Layout
 70
0
 62
4
420
65535
  6
Continuous
370
25
390
F
  0
LAYER
  5
59
100
AcDbSymbolTableRecord
100
AcDbLayerTableRecord
  2
Laser Cuts 1
 70
1
 62
7
420
0
  6
Continuous
370
25
390
F
  0
LAYER
  5
5A
100
AcDbSymbolTableRecord
100
AcDbLayerTableRecord
  2
Laser Cuts 2
 70
1
 62
7
420
0
  6
Continuous
370
25
390
F
  0
LAYER
  5
5B
100
AcDbSymbolTableRecord
100
AcDbLayerTableRecord
  2
Laser Cuts 3
 70
1
 62
7
420
0
  6
Continuous
370
25
390
F
  0
ENDTAB
  0
TABLE
  2
STYLE
  5
3
100
AcDbSymbolTable
 70
1
  0
STYLE
  5
5C
100
AcDbSymbolTableRecord
100
AcDbTextStyleTableRecord
  2
Standard
 70
0
 40
0.0
 41
1.0
 50
0.0
 71
0
 42
2.5
  3

  4

1001
ACAD
1000
txt
1071
0
  0
ENDTAB
  0
TABLE
  2
VIEW
  5
6
100
AcDbSymbolTable
 70
0
  0
ENDTAB
  0
TABLE
  2
UCS
  5
7
100
AcDbSymbolTable
 70
0
  0
ENDTAB
  0
TABLE
  2
APPID
  5
9
100
AcDbSymbolTable
 70
1
  0
APPID
  5
12
100
AcDbSymbolTableRecord
100
AcDbRegAppTableRecord
  2
ACAD
 70
0
  0
APPID
  5
5D
100
AcDbSymbolTableRecord
100
AcDbRegAppTableRecord
  2
QCAD
 70
0
  0
ENDTAB
  0
TABLE
  2
DIMSTYLE
  5
A
100
AcDbSymbolTable
 70
1
100
AcDbDimStyleTable
 71
0
  0
DIMSTYLE
105
27
100
AcDbSymbolTableRecord
100
AcDbDimStyleTableRecord
  2
Standard
 41
0.125
 42
0.03125
 43
3.75
 44
0.0625
 70
0
 73
0
 74
0
 77
1
 78
8
140
0.125
141
2.5
143
0.03937007874016
147
0.03125
171
3
172
1
271
2
272
2
274
3
278
44
283
0
284
8
340
5C
  0
ENDTAB
  0
TABLE
  2
BLOCK_RECORD
  5
1
100
AcDbSymbolTable
 70
1
  0
BLOCK_RECORD
  5
1F
100
AcDbSymbolTableRecord
100
AcDbBlockTableRecord
  2
*Model_Space
340
22
  0
BLOCK_RECORD
  5
1B
100
AcDbSymbolTableRecord
100
AcDbBlockTableRecord
  2
*Paper_Space
340
1E
  0
BLOCK_RECORD
  5
23
100
AcDbSymbolTableRecord
100
AcDbBlockTableRecord
  2
*Paper_Space0
340
26
  0
ENDTAB
  0
ENDSEC
  0
SECTION
  2
BLOCKS
  0
BLOCK
  5
20
100
AcDbEntity
  8
0
100
AcDbBlockBegin
  2
*Model_Space
 70
0
 10
0.0
 20
0.0
 30
0.0
  3
*Model_Space
  1

  0
ENDBLK
  5
21
100
AcDbEntity
  8
0
100
AcDbBlockEnd
  0
BLOCK
  5
1C
100
AcDbEntity
 67
1
  8
0
100
AcDbBlockBegin
  2
*Paper_Space
 70
0
 10
0.0
 20
0.0
 30
0.0
  3
*Paper_Space
  1

  0
ENDBLK
  5
1D
100
AcDbEntity
 67
1
  8
0
100
AcDbBlockEnd
  0
BLOCK
  5
24
100
AcDbEntity
  8
0
100
AcDbBlockBegin
  2
*Paper_Space0
 70
0
 10
0.0
 20
0.0
 30
0.0
  3
*Paper_Space0
  1

  0
ENDBLK
  5
25
100
AcDbEntity
  8
0
100
AcDbBlockEnd
  0
ENDSEC
  0
SECTION
  2
ENTITIES
  0
LINE
  5
5E
100
AcDbEntity
  8
0
 62
256
370
-1
 48
1.0
  6
BYLAYER
100
AcDbLine
 10
0.5773502691896257
 20
0.0
 30
0.0
 11
83.4226497308104058
 21
0.0
 31
0.0
  0
LINE
  5
5F
100
AcDbEntity
  8
Laser Cuts 3
 62
256
370
-1
 48
1.0
  6
BYLAYER
100
AcDbLine
 10
-28.582324738594771
 20
209.9999999999999432
 30
0.0
 11
298.9372161276481847
 21
209.9999999999999432
 31
0.0
  0
LINE
  5
60
100
AcDbEntity
  8
Folded Layout
 62
256
370
-1
 48
1.0
  6
BYLAYER
100
AcDbLine
 10
-0.2886751345948128
 20
0.5
 30
0.0
 11
-41.7113248654051887
 21
72.2461339178928768
 31
0.0
  0
LINE
  5
61
100
AcDbEntity
  8
Laser Cuts 3
 62
256
370
-1
 48
1.0
  6
BYLAYER
100
AcDbLine
 10
-28.5823247385947674
 20
149.9999999999999432
 30
0.0
 11
298.9372161276481847
 21
149.9999999999999432
 31
0.0
  0
LINE
  5
62
100
AcDbEntity
  8
Folded Layout
 62
256
370
-1
 48
1.0
  6
BYLAYER
100
AcDbLine
 10
84.2886751345948113
 20
0.4999999999999494
 30
0.0
 11
125.7113248654052029
 21
72.2461339178928483
 31
0.0
  0
LINE
  5
63
100
AcDbEntity
  8
Laser Cuts 3
 62
256
370
-1
 48
1.0
  6
BYLAYER
100
AcDbLine
 10
-28.5823247385947639
 20
89.9999999999999574
 30
0.0
 11
298.9372161276481847
 21
89.9999999999999574
 31
0.0
  0
LINE
  5
64
100
AcDbEntity
  8
Flat Layout
 62
256
370
-1
 48
1.0
  6
BYLAYER
100
AcDbLine
 10
0.577350269189626
 20
-2.0
 30
0.0
 11
83.4226497308104058
 21
-1.9999999999995608
 31
0.0
  0
LINE
  5
65
100
AcDbEntity
  8
Laser Cuts 3
 62
256
370
-1
 48
1.0
  6
BYLAYER
100
AcDbLine
 10
-28.5823247385947603
 20
29.9999999999999716
 30
0.0
 11
298.9372161276481847
 21
29.9999999999999716
 31
0.0
  0
LINE
  5
66
100
AcDbEntity
  8
Flat Layout
 62
256
370
-1
 48
1.0
  6
BYLAYER
100
AcDbLine
 10
0.5773502691896191
 20
61.9999999999999929
 30
0.0
 11
83.4226497308103916
 21
62.0000000000000142
 31
0.0
  0
LINE
  5
67
100
AcDbEntity
  8
Laser Cuts 3
 62
256
370
-1
 48
1.0
  6
BYLAYER
100
AcDbLine
 10
0.0000000000000142
 20
239.9999999999999432
 30
0.0
 11
327.5195408662428918
 21
239.9999999999999432
 31
0.0
  0
LINE
  5
68
100
AcDbEntity
  8
Folded Layout
 62
256
370
-1
 48
1.0
  6
BYLAYER
100
AcDbLine
 10
84.2886751345947687
 20
144.9922678357856682
 30
0.0
 11
125.7113248654051318
 21
73.2461339178924504
 31
0.0
  0
LINE
  5
69
100
AcDbEntity
  8
Laser Cuts 3
 62
256
370
-1
 48
1.0
  6
BYLAYER
100
AcDbLine
 10
0.0000000000000178
 20
179.9999999999999432
 30
0.0
 11
327.5195408662428918
 21
180.0000000000000284
 31
0.0
  0
LINE
  5
6A
100
AcDbEntity
  8
Folded Layout
 62
256
370
-1
 48
1.0
  6
BYLAYER
100
AcDbLine
 10
83.4226497308103063
 20
145.4922678357856967
 30
0.0
 11
0.5773502691895374
 21
145.4922678357856682
 31
0.0
  0
LINE
  5
6B
100
AcDbEntity
  8
Laser Cuts 3
 62
256
370
-1
 48
1.0
  6
BYLAYER
100
AcDbLine
 10
0.0000000000000213
 20
119.9999999999999574
 30
0.0
 11
327.5195408662428918
 21
120.0000000000000284
 31
0.0
  0
LINE
  5
6C
100
AcDbEntity
  8
Folded Layout
 62
256
370
-1
 48
1.0
  6
BYLAYER
100
AcDbLine
 10
-0.2886751345948113
 20
144.9922678357857535
 30
0.0
 11
-41.7113248654052597
 21
73.2461339178925783
 31
0.0
  0
LINE
  5
6D
100
AcDbEntity
  8
Laser Cuts 3
 62
256
370
-1
 48
1.0
  6
BYLAYER
100
AcDbLine
 10
0.0000000000000249
 20
59.9999999999999716
 30
0.0
 11
327.5195408662428918
 21
60.0000000000000568
 31
0.0
  0
LINE
  5
6E
100
AcDbEntity
  8
Flat Layout
 62
256
370
-1
 48
1.0
  6
BYLAYER
100
AcDbLine
 10
167.4226497308103774
 20
-1.9999999999999929
 30
0.0
 11
84.5773502691895942
 21
-1.9999999999995595
 31
0.0
  0
LINE
  5
6F
100
AcDbEntity
  8
Laser Cuts 3
 62
256
370
-1
 48
1.0
  6
BYLAYER
100
AcDbLine
 10
0.0000000000000284
 20
-0.0000000000000284
 30
0.0
 11
327.5195408662428918
 21
0.0000000000000568
 31
0.0
  0
LINE
  5
70
100
AcDbEntity
  8
0
 62
256
370
-1
 48
1.0
  6
BYLAYER
100
AcDbLine
 10
29.1596750077844113
 20
30.0
 30
0.0
 11
54.8403249922155851
 21
30.0
 31
0.0
  0
LINE
  5
71
100
AcDbEntity
  8
Laser Cuts 2
 62
256
370
-1
 48
1.0
  6
BYLAYER
100
AcDbLine
 10
-28.0049744694051448
 20
210.9999999999999432
 30
0.0
 11
0.0000000000000142
 21
239.9999999999999432
 31
0.0
  0
LINE
  5
72
100
AcDbEntity
  8
Folded Layout
 62
256
370
-1
 48
1.0
  6
BYLAYER
100
AcDbLine
 10
11.4009246096409527
 20
40.2530193228394921
 30
0.0
 11
-1.4394003825746267
 21
62.493114595053342
 31
0.0
  0
LINE
  5
73
100
AcDbEntity
  8
Laser Cuts 2
 62
256
370
-1
 48
1.0
  6
BYLAYER
100
AcDbLine
 10
-28.0049744694051448
 20
208.9999999999999432
 30
0.0
 11
0.0000000000000178
 21
179.9999999999999432
 31
0.0
  0
LINE
  5
74
100
AcDbEntity
  8
Folded Layout
 62
256
370
-1
 48
1.0
  6
BYLAYER
100
AcDbLine
 10
72.5990753903590615
 20
40.2530193228394779
 30
0.0
 11
85.4394003825746324
 21
62.4931145950533278
 31
0.0
  0
LINE
  5
75
100
AcDbEntity
  8
Laser Cuts 2
 62
256
370
-1
 48
1.0
  6
BYLAYER
100
AcDbLine
 10
-28.0049744694051412
 20
150.9999999999999432
 30
0.0
 11
0.0000000000000178
 21
179.9999999999999432
 31
0.0
  0
LINE
  5
76
100
AcDbEntity
  8
Flat Layout
 62
256
370
-1
 48
1.0
  6
BYLAYER
100
AcDbLine
 10
29.1596750077844078
 20
-32.0000000000000071
 30
0.0
 11
54.8403249922155851
 21
-32.0
 31
0.0
  0
LINE
  5
77
100
AcDbEntity
  8
Laser Cuts 2
 62
256
370
-1
 48
1.0
  6
BYLAYER
100
AcDbLine
 10
-28.0049744694051412
 20
148.9999999999999432
 30
0.0
 11
0.0000000000000213
 21
119.9999999999999574
 31
0.0
  0
LINE
  5
78
100
AcDbEntity
  8
Flat Layout
 62
256
370
-1
 48
1.0
  6
BYLAYER
100
AcDbLine
 10
29.1596750077844113
 20
32.0
 30
0.0
 11
54.8403249922155851
 21
31.9999999999999858
 31
0.0
  0
LINE
  5
79
100
AcDbEntity
  8
Laser Cuts 2
 62
256
370
-1
 48
1.0
  6
BYLAYER
100
AcDbLine
 10
-28.0049744694051377
 20
90.9999999999999574
 30
0.0
 11
0.0000000000000213
 21
119.9999999999999574
 31
0.0
  0
LINE
  5
7A
100
AcDbEntity
  8
Folded Layout
 62
256
370
-1
 48
1.0
  6
BYLAYER
100
AcDbLine
 10
72.5990753903589905
 20
105.2392485129461761
 30
0.0
 11
85.4394003825745756
 21
82.999153240732312
 31
0.0
  0
LINE
  5
7B
100
AcDbEntity
  8
Laser Cuts 2
 62
256
370
-1
 48
1.0
  6
BYLAYER
100
AcDbLine
 10
-28.0049744694051377
 20
88.9999999999999574
 30
0.0
 11
0.0000000000000249
 21
59.9999999999999716
 31
0.0
  0
LINE
  5
7C
100
AcDbEntity
  8
Folded Layout
 62
256
370
-1
 48
1.0
  6
BYLAYER
100
AcDbLine
 10
54.8403249922155425
 20
115.4922678357856682
 30
0.0
 11
29.159675007784422
 21
115.4922678357856825
 31
0.0
  0
LINE
  5
7D
100
AcDbEntity
  8
Laser Cuts 2
 62
256
370
-1
 48
1.0
  6
BYLAYER
100
AcDbLine
 10
-28.0049744694051341
 20
30.9999999999999716
 30
0.0
 11
0.0000000000000249
 21
59.9999999999999716
 31
0.0
  0
LINE
  5
7E
100
AcDbEntity
  8
Folded Layout
 62
256
370
-1
 48
1.0
  6
BYLAYER
100
AcDbLine
 10
11.4009246096409314
 20
105.2392485129462329
 30
0.0
 11
-1.4394003825746822
 21
82.9991532407323547
 31
0.0
  0
LINE
  5
7F
100
AcDbEntity
  8
Laser Cuts 2
 62
256
370
-1
 48
1.0
  6
BYLAYER
100
AcDbLine
 10
-28.0049744694051341
 20
28.9999999999999716
 30
0.0
 11
0.0000000000000284
 21
-0.0000000000000284
 31
0.0
  0
LINE
  5
80
100
AcDbEntity
  8
Flat Layout
 62
256
370
-1
 48
1.0
  6
BYLAYER
100
AcDbLine
 10
138.8403249922155851
 20
-32.0
 30
0.0
 11
113.1596750077844149
 21
-32.0
 31
0.0
  0
LINE
  5
81
100
AcDbEntity
  8
Laser Cuts 2
 62
256
370
-1
 48
1.0
  6
BYLAYER
100
AcDbLine
 10
54.6513132286434313
 20
209.9999999999999432
 30
0.0
 11
25.6806499844311951
 21
239.9999999999999432
 31
0.0
  0
LINE
  5
82
100
AcDbEntity
  8
0
 62
256
370
-1
 48
1.0
  6
BYLAYER
100
AcDbLine
 10
1.1547005383792521
 20
1.0000000000000007
 30
0.0
 11
29.1596750077844113
 21
30.0000000000000036
 31
0.0
  0
LINE
  5
83
100
AcDbEntity
  8
Laser Cuts 2
 62
256
370
-1
 48
1.0
  6
BYLAYER
100
AcDbLine
 10
109.30262645728682
 20
239.9999999999999432
 30
0.0
 11
80.3319632130746157
 21
209.9999999999999432
 31
0.0
  0
LINE
  5
84
100
AcDbEntity
  8
0
 62
256
370
-1
 48
1.0
  6
BYLAYER
100
AcDbLine
 10
82.8452994616207548
 20
1.000000000000004
 30
0.0
 11
54.8403249922155922
 21
30.0000000000000036
 31
0.0
  0
LINE
  5
85
100
AcDbEntity
  8
Laser Cuts 2
 62
256
370
-1
 48
1.0
  6
BYLAYER
100
AcDbLine
 10
163.9539396859302087
 20
209.9999999999999432
 30
0.0
 11
134.983276441717976
 21
239.9999999999999432
 31
0.0
  0
LINE
  5
86
100
AcDbEntity
  8
Folded Layout
 62
256
370
-1
 48
1.0
  6
BYLAYER
100
AcDbLine
 10
-40.5566243270256308
 20
72.2461339178930331
 30
0.0
 11
-1.4394003825746269
 21
62.4931145950533562
 31
0.0
  0
LINE
  5
87
100
AcDbEntity
  8
Laser Cuts 2
 62
256
370
-1
 48
1.0
  6
BYLAYER
100
AcDbLine
 10
218.6052529145736401
 20
239.9999999999999716
 30
0.0
 11
189.6345896703614073
 21
209.9999999999999147
 31
0.0
  0
LINE
  5
88
100
AcDbEntity
  8
Folded Layout
 62
256
370
-1
 48
1.0
  6
BYLAYER
100
AcDbLine
 10
0.2886751345948137
 20
1.5000000000000009
 30
0.0
 11
11.4009246096409651
 21
40.2530193228394992
 31
0.0
  0
LINE
  5
89
100
AcDbEntity
  8
Laser Cuts 2
 62
256
370
-1
 48
1.0
  6
BYLAYER
100
AcDbLine
 10
273.2565661432169577
 20
209.9999999999999716
 30
0.0
 11
244.2859028990047534
 21
239.9999999999999432
 31
0.0
  0
LINE
  5
8A
100
AcDbEntity
  8
Folded Layout
 62
256
370
-1
 48
1.0
  6
BYLAYER
100
AcDbLine
 10
83.7113248654051887
 20
1.5000000000000107
 30
0.0
 11
72.5990753903590473
 21
40.2530193228394992
 31
0.0
  0
LINE
  5
8B
100
AcDbEntity
  8
Laser Cuts 2
 62
256
370
-1
 48
1.0
  6
BYLAYER
100
AcDbLine
 10
326.9421905970532976
 20
238.9999999999999432
 30
0.0
 11
298.9372161276481847
 21
209.9999999999999716
 31
0.0
  0
LINE
  5
8C
100
AcDbEntity
  8
Folded Layout
 62
256
370
-1
 48
1.0
  6
BYLAYER
100
AcDbLine
 10
124.556624327025645
 20
72.2461339178930047
 30
0.0
 11
85.4394003825746324
 21
62.493114595053342
 31
0.0
  0
LINE
  5
8D
100
AcDbEntity
  8
Laser Cuts 2
 62
256
370
-1
 48
1.0
  6
BYLAYER
100
AcDbLine
 10
273.2565661432228694
 20
209.9999999999999716
 30
0.0
 11
244.2859028990047534
 21
179.9999999999998863
 31
0.0
  0
LINE
  5
8E
100
AcDbEntity
  8
Flat Layout
 62
256
370
-1
 48
1.0
  6
BYLAYER
100
AcDbLine
 10
82.8452994616207548
 20
-3.0000000000001559
 30
0.0
 11
54.8403249922155922
 21
-31.9999999999999929
 31
0.0
  0
LINE
  5
8F
100
AcDbEntity
  8
Laser Cuts 2
 62
256
370
-1
 48
1.0
  6
BYLAYER
100
AcDbLine
 10
326.9421905970532976
 20
181.0
 30
0.0
 11
298.9372161276481847
 21
209.9999999999999716
 31
0.0
  0
LINE
  5
90
100
AcDbEntity
  8
Flat Layout
 62
256
370
-1
 48
1.0
  6
BYLAYER
100
AcDbLine
 10
1.1547005383792524
 20
-3.0000000000000004
 30
0.0
 11
29.1596750077844078
 21
-32.0000000000000071
 31
0.0
  0
LINE
  5
91
100
AcDbEntity
  8
Laser Cuts 2
 62
256
370
-1
 48
1.0
  6
BYLAYER
100
AcDbLine
 10
54.651313228642934
 20
209.9999999999999432
 30
0.0
 11
25.6806499844311951
 21
179.9999999999999432
 31
0.0
  0
LINE
  5
92
100
AcDbEntity
  8
Flat Layout
 62
256
370
-1
 48
1.0
  6
BYLAYER
100
AcDbLine
 10
82.8452994616207548
 20
61.0
 30
0.0
 11
54.8403249922155922
 21
31.9999999999999858
 31
0.0
  0
LINE
  5
93
100
AcDbEntity
  8
Laser Cuts 2
 62
256
370
-1
 48
1.0
  6
BYLAYER
100
AcDbLine
 10
109.3026264572867916
 20
179.9999999999999716
 30
0.0
 11
80.3319632130746157
 21
209.9999999999999716
 31
0.0
  0
LINE
  5
94
100
AcDbEntity
  8
Flat Layout
 62
256
370
-1
 48
1.0
  6
BYLAYER
100
AcDbLine
 10
1.1547005383792524
 20
61.0
 30
0.0
 11
29.1596750077844113
 21
31.9999999999999964
 31
0.0
  0
LINE
  5
95
100
AcDbEntity
  8
Laser Cuts 2
 62
256
370
-1
 48
1.0
  6
BYLAYER
100
AcDbLine
 10
163.9539396859302371
 20
209.9999999999999432
 30
0.0
 11
134.983276441717976
 21
179.9999999999999432
 31
0.0
  0
LINE
  5
96
100
AcDbEntity
  8
Folded Layout
 62
256
370
-1
 48
1.0
  6
BYLAYER
100
AcDbLine
 10
83.7113248654051745
 20
143.9922678357856398
 30
0.0
 11
72.5990753903589763
 21
105.2392485129461619
 31
0.0
  0
LINE
  5
97
100
AcDbEntity
  8
Laser Cuts 2
 62
256
370
-1
 48
1.0
  6
BYLAYER
100
AcDbLine
 10
218.6052529145735832
 20
180.0
 30
0.0
 11
189.6345896703614073
 21
210.0
 31
0.0
  0
LINE
  5
98
100
AcDbEntity
  8
Folded Layout
 62
256
370
-1
 48
1.0
  6
BYLAYER
100
AcDbLine
 10
0.2886751345948042
 20
143.9922678357856967
 30
0.0
 11
11.4009246096408923
 21
105.2392485129461619
 31
0.0
  0
LINE
  5
99
100
AcDbEntity
  8
Laser Cuts 2
 62
256
370
-1
 48
1.0
  6
BYLAYER
100
AcDbLine
 10
54.6513132286434171
 20
149.9999999999999716
 30
0.0
 11
25.6806499844312022
 21
179.9999999999999432
 31
0.0
  0
LINE
  5
9A
100
AcDbEntity
  8
Folded Layout
 62
256
370
-1
 48
1.0
  6
BYLAYER
100
AcDbLine
 10
124.556624327025574
 20
73.2461339178930189
 30
0.0
 11
85.4394003825745756
 21
82.999153240732312
 31
0.0
  0
LINE
  5
9B
100
AcDbEntity
  8
Laser Cuts 2
 62
256
370
-1
 48
1.0
  6
BYLAYER
100
AcDbLine
 10
109.3026264572868484
 20
179.9999999999999716
 30
0.0
 11
80.3319632130746157
 21
149.9999999999999432
 31
0.0
  0
LINE
  5
9C
100
AcDbEntity
  8
Folded Layout
 62
256
370
-1
 48
1.0
  6
BYLAYER
100
AcDbLine
 10
1.1547005383792097
 20
144.4922678357856967
 30
0.0
 11
29.1596750077843438
 21
115.4922678357856682
 31
0.0
  0
LINE
  5
9D
100
AcDbEntity
  8
Laser Cuts 2
 62
256
370
-1
 48
1.0
  6
BYLAYER
100
AcDbLine
 10
163.9539396859302087
 20
149.9999999999999716
 30
0.0
 11
134.983276441717976
 21
179.9999999999999432
 31
0.0
  0
LINE
  5
9E
100
AcDbEntity
  8
Folded Layout
 62
256
370
-1
 48
1.0
  6
BYLAYER
100
AcDbLine
 10
82.8452994616207548
 20
144.4922678357856398
 30
0.0
 11
54.8403249922155425
 21
115.4922678357856682
 31
0.0
  0
LINE
  5
9F
100
AcDbEntity
  8
Laser Cuts 2
 62
256
370
-1
 48
1.0
  6
BYLAYER
100
AcDbLine
 10
218.6052529145736969
 20
180.0
 30
0.0
 11
189.6345896703614073
 21
149.9999999999999432
 31
0.0
  0
LINE
  5
A0
100
AcDbEntity
  8
Folded Layout
 62
256
370
-1
 48
1.0
  6
BYLAYER
100
AcDbLine
 10
-40.5566243270257019
 20
73.2461339178932178
 30
0.0
 11
-1.4394003825746822
 21
82.9991532407323547
 31
0.0
  0
LINE
  5
A1
100
AcDbEntity
  8
Laser Cuts 2
 62
256
370
-1
 48
1.0
  6
BYLAYER
100
AcDbLine
 10
273.2565661432169577
 20
149.9999999999999432
 30
0.0
 11
244.2859028990047534
 21
179.9999999999999432
 31
0.0
  0
LINE
  5
A2
100
AcDbEntity
  8
Flat Layout
 62
256
370
-1
 48
1.0
  6
BYLAYER
100
AcDbLine
 10
85.1547005383792452
 20
-3.0000000000001528
 30
0.0
 11
113.1596750077844149
 21
-32.0
 31
0.0
  0
LINE
  5
A3
100
AcDbEntity
  8
Laser Cuts 2
 62
256
370
-1
 48
1.0
  6
BYLAYER
100
AcDbLine
 10
326.9421905970532976
 20
178.9999999999999432
 30
0.0
 11
298.9372161276481847
 21
149.9999999999999716
 31
0.0
  0
LINE
  5
A4
100
AcDbEntity
  8
Flat Layout
 62
256
370
-1
 48
1.0
  6
BYLAYER
100
AcDbLine
 10
166.8452994616207548
 20
-3.0000000000000213
 30
0.0
 11
138.8403249922155851
 21
-32.0
 31
0.0
  0
LINE
  5
A5
100
AcDbEntity
  8
Laser Cuts 2
 62
256
370
-1
 48
1.0
  6
BYLAYER
100
AcDbLine
 10
273.2565661432228694
 20
149.9999999999999716
 30
0.0
 11
244.2859028990047534
 21
119.9999999999998863
 31
0.0
  0
LINE
  5
A6
100
AcDbEntity
  8
0
 62
256
370
-1
 48
1.0
  6
BYLAYER
100
AcDbLine
 10
0.5773502691896257
 20
0.0000000000000001
 30
0.0
 11
1.1547005383792519
 21
1.0000000000000004
 31
0.0
  0
LINE
  5
A7
100
AcDbEntity
  8
Laser Cuts 2
 62
256
370
-1
 48
1.0
  6
BYLAYER
100
AcDbLine
 10
326.9421905970532976
 20
121.0
 30
0.0
 11
298.9372161276481847
 21
149.9999999999999716
 31
0.0
  0
LINE
  5
A8
100
AcDbEntity
  8
0
 62
256
370
-1
 48
1.0
  6
BYLAYER
100
AcDbLine
 10
83.4226497308104058
 20
-0.0
 30
0.0
 11
82.8452994616207548
 21
1.000000000000004
 31
0.0
  0
LINE
  5
A9
100
AcDbEntity
  8
Laser Cuts 2
 62
256
370
-1
 48
1.0
  6
BYLAYER
100
AcDbLine
 10
54.6513132286429482
 20
149.9999999999999432
 30
0.0
 11
25.6806499844312022
 21
119.9999999999999432
 31
0.0
  0
LINE
  5
AA
100
AcDbEntity
  8
Folded Layout
 62
256
370
-1
 48
1.0
  6
BYLAYER
100
AcDbLine
 10
-0.2886751345948128
 20
0.5
 30
0.0
 11
0.2886751345948136
 21
1.5000000000000004
 31
0.0
  0
LINE
  5
AB
100
AcDbEntity
  8
Laser Cuts 2
 62
256
370
-1
 48
1.0
  6
BYLAYER
100
AcDbLine
 10
109.3026264572867916
 20
119.9999999999999716
 30
0.0
 11
80.3319632130746157
 21
149.9999999999999716
 31
0.0
  0
LINE
  5
AC
100
AcDbEntity
  8
Folded Layout
 62
256
370
-1
 48
1.0
  6
BYLAYER
100
AcDbLine
 10
-41.7113248654051887
 20
72.2461339178928768
 30
0.0
 11
-40.5566243270256308
 21
72.2461339178930331
 31
0.0
  0
LINE
  5
AD
100
AcDbEntity
  8
Laser Cuts 2
 62
256
370
-1
 48
1.0
  6
BYLAYER
100
AcDbLine
 10
163.9539396859302656
 20
149.9999999999999716
 30
0.0
 11
134.983276441717976
 21
119.9999999999999716
 31
0.0
  0
LINE
  5
AE
100
AcDbEntity
  8
Folded Layout
 62
256
370
-1
 48
1.0
  6
BYLAYER
100
AcDbLine
 10
84.2886751345948113
 20
0.4999999999999494
 30
0.0
 11
83.7113248654051887
 21
1.5000000000000107
 31
0.0
  0
LINE
  5
AF
100
AcDbEntity
  8
Laser Cuts 2
 62
256
370
-1
 48
1.0
  6
BYLAYER
100
AcDbLine
 10
218.6052529145735832
 20
119.9999999999999858
 30
0.0
 11
189.6345896703614073
 21
150.0
 31
0.0
  0
LINE
  5
B0
100
AcDbEntity
  8
Folded Layout
 62
256
370
-1
 48
1.0
  6
BYLAYER
100
AcDbLine
 10
125.7113248654052029
 20
72.2461339178928483
 30
0.0
 11
124.556624327025645
 21
72.2461339178930047
 31
0.0
  0
LINE
  5
B1
100
AcDbEntity
  8
Laser Cuts 2
 62
256
370
-1
 48
1.0
  6
BYLAYER
100
AcDbLine
 10
54.6513132286434029
 20
89.9999999999999858
 30
0.0
 11
25.6806499844312022
 21
119.9999999999999574
 31
0.0
  0
LINE
  5
B2
100
AcDbEntity
  8
Flat Layout
 62
256
370
-1
 48
1.0
  6
BYLAYER
100
AcDbLine
 10
0.577350269189626
 20
-2.0
 30
0.0
 11
1.1547005383792524
 21
-3.0000000000000004
 31
0.0
  0
LINE
  5
B3
100
AcDbEntity
  8
Laser Cuts 2
 62
256
370
-1
 48
1.0
  6
BYLAYER
100
AcDbLine
 10
109.3026264572868769
 20
120.0
 30
0.0
 11
80.3319632130746157
 21
89.9999999999999432
 31
0.0
  0
LINE
  5
B4
100
AcDbEntity
  8
Flat Layout
 62
256
370
-1
 48
1.0
  6
BYLAYER
100
AcDbLine
 10
83.4226497308104058
 20
-1.9999999999995608
 30
0.0
 11
82.8452994616207548
 21
-3.0000000000001559
 31
0.0
  0
LINE
  5
B5
100
AcDbEntity
  8
Laser Cuts 2
 62
256
370
-1
 48
1.0
  6
BYLAYER
100
AcDbLine
 10
163.9539396859302087
 20
89.9999999999999716
 30
0.0
 11
134.983276441717976
 21
119.9999999999999574
 31
0.0
  0
LINE
  5
B6
100
AcDbEntity
  8
Flat Layout
 62
256
370
-1
 48
1.0
  6
BYLAYER
100
AcDbLine
 10
0.5773502691896191
 20
61.9999999999999929
 30
0.0
 11
1.1547005383792524
 21
61.0
 31
0.0
  0
LINE
  5
B7
100
AcDbEntity
  8
Laser Cuts 2
 62
256
370
-1
 48
1.0
  6
BYLAYER
100
AcDbLine
 10
218.6052529145736969
 20
120.0000000000000142
 30
0.0
 11
189.6345896703614073
 21
89.9999999999999432
 31
0.0
  0
LINE
  5
B8
100
AcDbEntity
  8
Flat Layout
 62
256
370
-1
 48
1.0
  6
BYLAYER
100
AcDbLine
 10
83.4226497308103916
 20
62.0000000000000142
 30
0.0
 11
82.8452994616207548
 21
61.0
 31
0.0
  0
LINE
  5
B9
100
AcDbEntity
  8
Laser Cuts 2
 62
256
370
-1
 48
1.0
  6
BYLAYER
100
AcDbLine
 10
273.2565661432169577
 20
89.9999999999999716
 30
0.0
 11
244.2859028990047534
 21
119.9999999999999432
 31
0.0
  0
LINE
  5
BA
100
AcDbEntity
  8
Folded Layout
 62
256
370
-1
 48
1.0
  6
BYLAYER
100
AcDbLine
 10
-0.2886751345948113
 20
144.9922678357857535
 30
0.0
 11
0.2886751345948042
 21
143.9922678357856967
 31
0.0
  0
LINE
  5
BB
100
AcDbEntity
  8
Laser Cuts 2
 62
256
370
-1
 48
1.0
  6
BYLAYER
100
AcDbLine
 10
326.9421905970532976
 20
118.9999999999999432
 30
0.0
 11
298.9372161276481847
 21
89.9999999999999716
 31
0.0
  0
LINE
  5
BC
100
AcDbEntity
  8
Folded Layout
 62
256
370
-1
 48
1.0
  6
BYLAYER
100
AcDbLine
 10
-41.7113248654052597
 20
73.2461339178925783
 30
0.0
 11
-40.5566243270257019
 21
73.2461339178932178
 31
0.0
  0
LINE
  5
BD
100
AcDbEntity
  8
Laser Cuts 2
 62
256
370
-1
 48
1.0
  6
BYLAYER
100
AcDbLine
 10
273.2565661432228694
 20
89.9999999999999858
 30
0.0
 11
244.2859028990047534
 21
59.9999999999998863
 31
0.0
  0
LINE
  5
BE
100
AcDbEntity
  8
Folded Layout
 62
256
370
-1
 48
1.0
  6
BYLAYER
100
AcDbLine
 10
125.7113248654051318
 20
73.2461339178924504
 30
0.0
 11
124.556624327025574
 21
73.2461339178930189
 31
0.0
  0
LINE
  5
BF
100
AcDbEntity
  8
Laser Cuts 2
 62
256
370
-1
 48
1.0
  6
BYLAYER
100
AcDbLine
 10
326.9421905970532976
 20
61.0
 30
0.0
 11
298.9372161276481847
 21
89.9999999999999716
 31
0.0
  0
LINE
  5
C0
100
AcDbEntity
  8
Folded Layout
 62
256
370
-1
 48
1.0
  6
BYLAYER
100
AcDbLine
 10
83.4226497308103063
 20
145.4922678357856967
 30
0.0
 11
82.8452994616207548
 21
144.4922678357856398
 31
0.0
  0
LINE
  5
C1
100
AcDbEntity
  8
Laser Cuts 2
 62
256
370
-1
 48
1.0
  6
BYLAYER
100
AcDbLine
 10
54.6513132286429624
 20
89.9999999999999858
 30
0.0
 11
25.6806499844312022
 21
59.9999999999999432
 31
0.0
  0
LINE
  5
C2
100
AcDbEntity
  8
Folded Layout
 62
256
370
-1
 48
1.0
  6
BYLAYER
100
AcDbLine
 10
0.5773502691895374
 20
145.4922678357856682
 30
0.0
 11
1.1547005383792097
 21
144.4922678357856967
 31
0.0
  0
LINE
  5
C3
100
AcDbEntity
  8
Laser Cuts 2
 62
256
370
-1
 48
1.0
  6
BYLAYER
100
AcDbLine
 10
109.3026264572867916
 20
59.9999999999999716
 30
0.0
 11
80.3319632130746157
 21
89.9999999999999858
 31
0.0
  0
LINE
  5
C4
100
AcDbEntity
  8
Folded Layout
 62
256
370
-1
 48
1.0
  6
BYLAYER
100
AcDbLine
 10
84.2886751345947687
 20
144.9922678357856682
 30
0.0
 11
83.7113248654051745
 21
143.9922678357856398
 31
0.0
  0
LINE
  5
C5
100
AcDbEntity
  8
Laser Cuts 2
 62
256
370
-1
 48
1.0
  6
BYLAYER
100
AcDbLine
 10
163.9539396859302371
 20
89.9999999999999432
 30
0.0
 11
134.983276441717976
 21
59.9999999999999716
 31
0.0
  0
LINE
  5
C6
100
AcDbEntity
  8
Flat Layout
 62
256
370
-1
 48
1.0
  6
BYLAYER
100
AcDbLine
 10
167.4226497308103774
 20
-1.9999999999999929
 30
0.0
 11
166.8452994616207548
 21
-3.0000000000000213
 31
0.0
  0
LINE
  5
C7
100
AcDbEntity
  8
Laser Cuts 2
 62
256
370
-1
 48
1.0
  6
BYLAYER
100
AcDbLine
 10
218.6052529145735832
 20
60.0
 30
0.0
 11
189.6345896703614073
 21
90.0000000000000142
 31
0.0
  0
LINE
  5
C8
100
AcDbEntity
  8
Flat Layout
 62
256
370
-1
 48
1.0
  6
BYLAYER
100
AcDbLine
 10
84.5773502691895942
 20
-1.9999999999995595
 30
0.0
 11
85.1547005383792452
 21
-3.0000000000001528
 31
0.0
  0
LINE
  5
C9
100
AcDbEntity
  8
Laser Cuts 2
 62
256
370
-1
 48
1.0
  6
BYLAYER
100
AcDbLine
 10
54.6513132286434455
 20
29.9999999999999716
 30
0.0
 11
25.6806499844312022
 21
59.9999999999999716
 31
0.0
  0
LINE
  5
CA
100
AcDbEntity
  8
Laser Cuts 2
 62
256
370
-1
 48
1.0
  6
BYLAYER
100
AcDbLine
 10
109.3026264572868769
 20
60.0000000000000284
 30
0.0
 11
80.3319632130746299
 21
29.9999999999999432
 31
0.0
  0
LINE
  5
CB
100
AcDbEntity
  8
Laser Cuts 2
 62
256
370
-1
 48
1.0
  6
BYLAYER
100
AcDbLine
 10
163.9539396859302087
 20
29.9999999999999716
 30
0.0
 11
134.983276441717976
 21
59.9999999999999716
 31
0.0
  0
LINE
  5
CC
100
AcDbEntity
  8
Laser Cuts 2
 62
256
370
-1
 48
1.0
  6
BYLAYER
100
AcDbLine
 10
218.6052529145736685
 20
60.0000000000000284
 30
0.0
 11
189.6345896703614073
 21
29.9999999999999432
 31
0.0
  0
LINE
  5
CD
100
AcDbEntity
  8
Laser Cuts 2
 62
256
370
-1
 48
1.0
  6
BYLAYER
100
AcDbLine
 10
273.2565661432169577
 20
29.9999999999999716
 30
0.0
 11
244.2859028990047534
 21
59.9999999999999716
 31
0.0
  0
LINE
  5
CE
100
AcDbEntity
  8
Laser Cuts 2
 62
256
370
-1
 48
1.0
  6
BYLAYER
100
AcDbLine
 10
326.9421905970532976
 20
58.9999999999999432
 30
0.0
 11
298.9372161276481847
 21
30.0
 31
0.0
  0
LINE
  5
CF
100
AcDbEntity
  8
Laser Cuts 2
 62
256
370
-1
 48
1.0
  6
BYLAYER
100
AcDbLine
 10
273.2565661432228694
 20
30.0
 30
0.0
 11
244.2859028990047534
 21
-0.0000000000000853
 31
0.0
  0
LINE
  5
D0
100
AcDbEntity
  8
Laser Cuts 2
 62
256
370
-1
 48
1.0
  6
BYLAYER
100
AcDbLine
 10
326.9421905970532976
 20
1.0000000000000284
 30
0.0
 11
298.9372161276481847
 21
30.0
 31
0.0
  0
LINE
  5
D1
100
AcDbEntity
  8
Laser Cuts 2
 62
256
370
-1
 48
1.0
  6
BYLAYER
100
AcDbLine
 10
54.6513132286429482
 20
29.9999999999999716
 30
0.0
 11
25.6806499844312022
 21
-0.0000000000000284
 31
0.0
  0
LINE
  5
D2
100
AcDbEntity
  8
Laser Cuts 2
 62
256
370
-1
 48
1.0
  6
BYLAYER
100
AcDbLine
 10
109.3026264572867916
 20
0.0
 30
0.0
 11
80.3319632130746299
 21
30.0
 31
0.0
  0
LINE
  5
D3
100
AcDbEntity
  8
Laser Cuts 2
 62
256
370
-1
 48
1.0
  6
BYLAYER
100
AcDbLine
 10
163.9539396859302371
 20
29.9999999999999716
 30
0.0
 11
134.983276441717976
 21
0.0
 31
0.0
  0
LINE
  5
D4
100
AcDbEntity
  8
Laser Cuts 2
 62
256
370
-1
 48
1.0
  6
BYLAYER
100
AcDbLine
 10
218.6052529145735548
 20
0.0000000000000568
 30
0.0
 11
189.6345896703614073
 21
30.0000000000000284
 31
0.0
  0
LINE
  5
D5
100
AcDbEntity
  8
Laser Cuts 1
 62
256
370
-1
 48
1.0
  6
BYLAYER
100
AcDbLine
 10
-28.582324738594771
 20
209.9999999999999432
 30
0.0
 11
-28.0049744694051448
 21
210.9999999999999432
 31
0.0
  0
LINE
  5
D6
100
AcDbEntity
  8
Laser Cuts 1
 62
256
370
-1
 48
1.0
  6
BYLAYER
100
AcDbLine
 10
26.0689884900486426
 20
239.9999999999999432
 30
0.0
 11
26.6463387592382652
 21
238.9999999999999432
 31
0.0
  0
LINE
  5
D7
100
AcDbEntity
  8
Laser Cuts 1
 62
256
370
-1
 48
1.0
  6
BYLAYER
100
AcDbLine
 10
80.7203017186919993
 20
209.9999999999999432
 30
0.0
 11
81.2976519878816219
 21
210.9999999999999432
 31
0.0
  0
LINE
  5
D8
100
AcDbEntity
  8
Laser Cuts 1
 62
256
370
-1
 48
1.0
  6
BYLAYER
100
AcDbLine
 10
135.3716149473354164
 20
239.9999999999999147
 30
0.0
 11
135.9489652165250675
 21
238.9999999999999147
 31
0.0
  0
LINE
  5
D9
100
AcDbEntity
  8
Laser Cuts 1
 62
256
370
-1
 48
1.0
  6
BYLAYER
100
AcDbLine
 10
190.0229281759787909
 20
209.9999999999999432
 30
0.0
 11
190.6002784451684136
 21
210.9999999999999432
 31
0.0
  0
LINE
  5
DA
100
AcDbEntity
  8
Laser Cuts 1
 62
256
370
-1
 48
1.0
  6
BYLAYER
100
AcDbLine
 10
244.6742414046222223
 20
239.9999999999999147
 30
0.0
 11
245.2515916738118165
 21
238.9999999999999147
 31
0.0
  0
LINE
  5
DB
100
AcDbEntity
  8
Laser Cuts 1
 62
256
370
-1
 48
1.0
  6
BYLAYER
100
AcDbLine
 10
-28.582324738594771
 20
209.9999999999999432
 30
0.0
 11
-28.0049744694051448
 21
208.9999999999999432
 31
0.0
  0
LINE
  5
DC
100
AcDbEntity
  8
Laser Cuts 1
 62
256
370
-1
 48
1.0
  6
BYLAYER
100
AcDbLine
 10
26.0689884900486426
 20
179.9999999999999716
 30
0.0
 11
26.6463387592382652
 21
180.9999999999999716
 31
0.0
  0
LINE
  5
DD
100
AcDbEntity
  8
Laser Cuts 1
 62
256
370
-1
 48
1.0
  6
BYLAYER
100
AcDbLine
 10
190.0229281759787909
 20
210.0
 30
0.0
 11
190.6002784451684136
 21
209.0000000000005684
 31
0.0
  0
LINE
  5
DE
100
AcDbEntity
  8
Laser Cuts 1
 62
256
370
-1
 48
1.0
  6
BYLAYER
100
AcDbLine
 10
244.6742414046222223
 20
179.9999999999996874
 30
0.0
 11
245.2515916738118165
 21
180.9999999999998863
 31
0.0
  0
LINE
  5
DF
100
AcDbEntity
  8
Laser Cuts 1
 62
256
370
-1
 48
1.0
  6
BYLAYER
100
AcDbLine
 10
80.7203017186919993
 20
209.9999999999999716
 30
0.0
 11
81.2976519878816219
 21
208.9999999999992042
 31
0.0
  0
LINE
  5
E0
100
AcDbEntity
  8
Laser Cuts 1
 62
256
370
-1
 48
1.0
  6
BYLAYER
100
AcDbLine
 10
135.3716149473354164
 20
179.9999999999999716
 30
0.0
 11
135.9489652165250675
 21
180.9999999999999147
 31
0.0
  0
LINE
  5
E1
100
AcDbEntity
  8
Laser Cuts 1
 62
256
370
-1
 48
1.0
  6
BYLAYER
100
AcDbLine
 10
-28.5823247385947674
 20
149.9999999999999432
 30
0.0
 11
-28.0049744694051412
 21
150.9999999999999432
 31
0.0
  0
LINE
  5
E2
100
AcDbEntity
  8
Laser Cuts 1
 62
256
370
-1
 48
1.0
  6
BYLAYER
100
AcDbLine
 10
26.0689884900486426
 20
179.9999999999999432
 30
0.0
 11
26.6463387592382652
 21
178.9999999999999432
 31
0.0
  0
LINE
  5
E3
100
AcDbEntity
  8
Laser Cuts 1
 62
256
370
-1
 48
1.0
  6
BYLAYER
100
AcDbLine
 10
80.7203017186919993
 20
149.9999999999999432
 30
0.0
 11
81.2976519878816219
 21
150.9999999999999432
 31
0.0
  0
LINE
  5
E4
100
AcDbEntity
  8
Laser Cuts 1
 62
256
370
-1
 48
1.0
  6
BYLAYER
100
AcDbLine
 10
135.3716149473354164
 20
179.9999999999999432
 30
0.0
 11
135.9489652165250675
 21
178.9999999999999432
 31
0.0
  0
LINE
  5
E5
100
AcDbEntity
  8
Laser Cuts 1
 62
256
370
-1
 48
1.0
  6
BYLAYER
100
AcDbLine
 10
190.0229281759787909
 20
149.9999999999999432
 30
0.0
 11
190.6002784451684136
 21
150.9999999999999432
 31
0.0
  0
LINE
  5
E6
100
AcDbEntity
  8
Laser Cuts 1
 62
256
370
-1
 48
1.0
  6
BYLAYER
100
AcDbLine
 10
244.6742414046222223
 20
179.9999999999999147
 30
0.0
 11
245.2515916738118165
 21
178.9999999999999147
 31
0.0
  0
LINE
  5
E7
100
AcDbEntity
  8
Laser Cuts 1
 62
256
370
-1
 48
1.0
  6
BYLAYER
100
AcDbLine
 10
-28.5823247385947674
 20
149.9999999999999432
 30
0.0
 11
-28.0049744694051412
 21
148.9999999999999432
 31
0.0
  0
LINE
  5
E8
100
AcDbEntity
  8
Laser Cuts 1
 62
256
370
-1
 48
1.0
  6
BYLAYER
100
AcDbLine
 10
26.0689884900486426
 20
119.9999999999999716
 30
0.0
 11
26.6463387592382652
 21
120.9999999999999716
 31
0.0
  0
LINE
  5
E9
100
AcDbEntity
  8
Laser Cuts 1
 62
256
370
-1
 48
1.0
  6
BYLAYER
100
AcDbLine
 10
190.0229281759787909
 20
150.0
 30
0.0
 11
190.6002784451684136
 21
149.0000000000005684
 31
0.0
  0
LINE
  5
EA
100
AcDbEntity
  8
Laser Cuts 1
 62
256
370
-1
 48
1.0
  6
BYLAYER
100
AcDbLine
 10
244.6742414046222223
 20
119.9999999999997016
 30
0.0
 11
245.2515916738118165
 21
120.9999999999999005
 31
0.0
  0
LINE
  5
EB
100
AcDbEntity
  8
Laser Cuts 1
 62
256
370
-1
 48
1.0
  6
BYLAYER
100
AcDbLine
 10
80.7203017186919993
 20
149.9999999999999716
 30
0.0
 11
81.2976519878816219
 21
148.9999999999992042
 31
0.0
  0
LINE
  5
EC
100
AcDbEntity
  8
Laser Cuts 1
 62
256
370
-1
 48
1.0
  6
BYLAYER
100
AcDbLine
 10
135.3716149473354164
 20
119.9999999999999858
 30
0.0
 11
135.9489652165250675
 21
120.9999999999999289
 31
0.0
  0
LINE
  5
ED
100
AcDbEntity
  8
Laser Cuts 1
 62
256
370
-1
 48
1.0
  6
BYLAYER
100
AcDbLine
 10
-28.5823247385947639
 20
89.9999999999999574
 30
0.0
 11
-28.0049744694051377
 21
90.9999999999999574
 31
0.0
  0
LINE
  5
EE
100
AcDbEntity
  8
Laser Cuts 1
 62
256
370
-1
 48
1.0
  6
BYLAYER
100
AcDbLine
 10
26.0689884900486497
 20
119.9999999999999432
 30
0.0
 11
26.6463387592382723
 21
118.9999999999999432
 31
0.0
  0
LINE
  5
EF
100
AcDbEntity
  8
Laser Cuts 1
 62
256
370
-1
 48
1.0
  6
BYLAYER
100
AcDbLine
 10
80.7203017186919993
 20
89.9999999999999574
 30
0.0
 11
81.2976519878816219
 21
90.9999999999999574
 31
0.0
  0
LINE
  5
F0
100
AcDbEntity
  8
Laser Cuts 1
 62
256
370
-1
 48
1.0
  6
BYLAYER
100
AcDbLine
 10
135.3716149473354164
 20
119.9999999999999432
 30
0.0
 11
135.9489652165250675
 21
118.9999999999999432
 31
0.0
  0
LINE
  5
F1
100
AcDbEntity
  8
Laser Cuts 1
 62
256
370
-1
 48
1.0
  6
BYLAYER
100
AcDbLine
 10
190.0229281759787909
 20
89.9999999999999432
 30
0.0
 11
190.6002784451684136
 21
90.9999999999999432
 31
0.0
  0
LINE
  5
F2
100
AcDbEntity
  8
Laser Cuts 1
 62
256
370
-1
 48
1.0
  6
BYLAYER
100
AcDbLine
 10
244.6742414046222223
 20
119.9999999999999289
 30
0.0
 11
245.2515916738118165
 21
118.9999999999999289
 31
0.0
  0
LINE
  5
F3
100
AcDbEntity
  8
Laser Cuts 1
 62
256
370
-1
 48
1.0
  6
BYLAYER
100
AcDbLine
 10
-28.5823247385947639
 20
89.9999999999999574
 30
0.0
 11
-28.0049744694051377
 21
88.9999999999999574
 31
0.0
  0
LINE
  5
F4
100
AcDbEntity
  8
Laser Cuts 1
 62
256
370
-1
 48
1.0
  6
BYLAYER
100
AcDbLine
 10
26.0689884900486497
 20
59.9999999999999716
 30
0.0
 11
26.6463387592382723
 21
60.9999999999999716
 31
0.0
  0
LINE
  5
F5
100
AcDbEntity
  8
Laser Cuts 1
 62
256
370
-1
 48
1.0
  6
BYLAYER
100
AcDbLine
 10
190.0229281759787909
 20
90.0000000000000142
 30
0.0
 11
190.6002784451684136
 21
89.0000000000005826
 31
0.0
  0
LINE
  5
F6
100
AcDbEntity
  8
Laser Cuts 1
 62
256
370
-1
 48
1.0
  6
BYLAYER
100
AcDbLine
 10
244.6742414046222223
 20
59.9999999999997158
 30
0.0
 11
245.2515916738118165
 21
60.9999999999999147
 31
0.0
  0
LINE
  5
F7
100
AcDbEntity
  8
Laser Cuts 1
 62
256
370
-1
 48
1.0
  6
BYLAYER
100
AcDbLine
 10
80.7203017186919993
 20
89.9999999999999858
 30
0.0
 11
81.2976519878816219
 21
88.9999999999992184
 31
0.0
  0
LINE
  5
F8
100
AcDbEntity
  8
Laser Cuts 1
 62
256
370
-1
 48
1.0
  6
BYLAYER
100
AcDbLine
 10
135.3716149473354164
 20
60.0
 30
0.0
 11
135.9489652165250675
 21
60.9999999999999432
 31
0.0
  0
LINE
  5
F9
100
AcDbEntity
  8
Laser Cuts 1
 62
256
370
-1
 48
1.0
  6
BYLAYER
100
AcDbLine
 10
-28.5823247385947603
 20
29.9999999999999716
 30
0.0
 11
-28.0049744694051341
 21
30.9999999999999716
 31
0.0
  0
LINE
  5
FA
100
AcDbEntity
  8
Laser Cuts 1
 62
256
370
-1
 48
1.0
  6
BYLAYER
100
AcDbLine
 10
26.0689884900486568
 20
59.9999999999999432
 30
0.0
 11
26.6463387592382794
 21
58.9999999999999432
 31
0.0
  0
LINE
  5
FB
100
AcDbEntity
  8
Laser Cuts 1
 62
256
370
-1
 48
1.0
  6
BYLAYER
100
AcDbLine
 10
80.7203017186920135
 20
29.9999999999999716
 30
0.0
 11
81.2976519878816362
 21
30.9999999999999716
 31
0.0
  0
LINE
  5
FC
100
AcDbEntity
  8
Laser Cuts 1
 62
256
370
-1
 48
1.0
  6
BYLAYER
100
AcDbLine
 10
135.3716149473354164
 20
59.9999999999999432
 30
0.0
 11
135.9489652165250675
 21
58.9999999999999432
 31
0.0
  0
LINE
  5
FD
100
AcDbEntity
  8
Laser Cuts 1
 62
256
370
-1
 48
1.0
  6
BYLAYER
100
AcDbLine
 10
190.0229281759787909
 20
29.9999999999999716
 30
0.0
 11
190.6002784451684136
 21
30.9999999999999716
 31
0.0
  0
LINE
  5
FE
100
AcDbEntity
  8
Laser Cuts 1
 62
256
370
-1
 48
1.0
  6
BYLAYER
100
AcDbLine
 10
244.6742414046222223
 20
59.9999999999999432
 30
0.0
 11
245.2515916738118165
 21
58.9999999999999432
 31
0.0
  0
LINE
  5
FF
100
AcDbEntity
  8
Laser Cuts 1
 62
256
370
-1
 48
1.0
  6
BYLAYER
100
AcDbLine
 10
-28.5823247385947603
 20
29.9999999999999716
 30
0.0
 11
-28.0049744694051341
 21
28.9999999999999716
 31
0.0
  0
LINE
  5
100
100
AcDbEntity
  8
Laser Cuts 1
 62
256
370
-1
 48
1.0
  6
BYLAYER
100
AcDbLine
 10
26.0689884900486568
 20
0.0
 30
0.0
 11
26.6463387592382794
 21
1.0
 31
0.0
  0
LINE
  5
101
100
AcDbEntity
  8
Laser Cuts 1
 62
256
370
-1
 48
1.0
  6
BYLAYER
100
AcDbLine
 10
190.0229281759787909
 20
30.0000000000000284
 30
0.0
 11
190.6002784451684136
 21
29.0000000000005969
 31
0.0
  0
LINE
  5
102
100
AcDbEntity
  8
Laser Cuts 1
 62
256
370
-1
 48
1.0
  6
BYLAYER
100
AcDbLine
 10
244.6742414046222223
 20
-0.0000000000002842
 30
0.0
 11
245.2515916738118165
 21
0.9999999999999147
 31
0.0
  0
LINE
  5
103
100
AcDbEntity
  8
Laser Cuts 1
 62
256
370
-1
 48
1.0
  6
BYLAYER
100
AcDbLine
 10
80.7203017186920135
 20
30.0
 30
0.0
 11
81.2976519878816362
 21
28.9999999999992326
 31
0.0
  0
LINE
  5
104
100
AcDbEntity
  8
Laser Cuts 1
 62
256
370
-1
 48
1.0
  6
BYLAYER
100
AcDbLine
 10
135.3716149473354164
 20
0.0
 30
0.0
 11
135.9489652165250675
 21
0.9999999999999432
 31
0.0
  0
LINE
  5
105
100
AcDbEntity
  8
Laser Cuts 1
 62
256
370
-1
 48
1.0
  6
BYLAYER
100
AcDbLine
 10
54.2629747230260051
 20
209.9999999999999432
 30
0.0
 11
53.6856244538363541
 21
210.9999999999999432
 31
0.0
  0
LINE
  5
106
100
AcDbEntity
  8
Laser Cuts 1
 62
256
370
-1
 48
1.0
  6
BYLAYER
100
AcDbLine
 10
108.914287951669408
 20
239.9999999999999432
 30
0.0
 11
108.336937682479757
 21
238.9999999999999432
 31
0.0
  0
LINE
  5
107
100
AcDbEntity
  8
Laser Cuts 1
 62
256
370
-1
 48
1.0
  6
BYLAYER
100
AcDbLine
 10
163.5656011803127967
 20
209.9999999999999432
 30
0.0
 11
162.9882509111231457
 21
210.9999999999999432
 31
0.0
  0
LINE
  5
108
100
AcDbEntity
  8
Laser Cuts 1
 62
256
370
-1
 48
1.0
  6
BYLAYER
100
AcDbLine
 10
218.2169144089561996
 20
239.9999999999999432
 30
0.0
 11
217.6395641397665486
 21
238.9999999999999432
 31
0.0
  0
LINE
  5
109
100
AcDbEntity
  8
Laser Cuts 1
 62
256
370
-1
 48
1.0
  6
BYLAYER
100
AcDbLine
 10
272.8682276375995457
 20
209.9999999999999432
 30
0.0
 11
272.2908773684098946
 21
210.9999999999999432
 31
0.0
  0
LINE
  5
10A
100
AcDbEntity
  8
Laser Cuts 1
 62
256
370
-1
 48
1.0
  6
BYLAYER
100
AcDbLine
 10
327.5195408662428918
 20
239.9999999999999432
 30
0.0
 11
326.9421905970532976
 21
238.9999999999999432
 31
0.0
  0
LINE
  5
10B
100
AcDbEntity
  8
Laser Cuts 1
 62
256
370
-1
 48
1.0
  6
BYLAYER
100
AcDbLine
 10
54.2629747230260051
 20
209.9999999999999432
 30
0.0
 11
53.6856244538363541
 21
209.0000000000004263
 31
0.0
  0
LINE
  5
10C
100
AcDbEntity
  8
Laser Cuts 1
 62
256
370
-1
 48
1.0
  6
BYLAYER
100
AcDbLine
 10
272.8682276375995457
 20
210.0000000000000284
 30
0.0
 11
272.2908773684098946
 21
208.9999999999940599
 31
0.0
  0
LINE
  5
10D
100
AcDbEntity
  8
Laser Cuts 1
 62
256
370
-1
 48
1.0
  6
BYLAYER
100
AcDbLine
 10
327.5195408662428918
 20
180.0000000000000284
 30
0.0
 11
326.9421905970532976
 21
181.0
 31
0.0
  0
LINE
  5
10E
100
AcDbEntity
  8
Laser Cuts 1
 62
256
370
-1
 48
1.0
  6
BYLAYER
100
AcDbLine
 10
108.914287951669408
 20
179.9999999999999432
 30
0.0
 11
108.336937682479757
 21
180.9999999999999432
 31
0.0
  0
LINE
  5
10F
100
AcDbEntity
  8
Laser Cuts 1
 62
256
370
-1
 48
1.0
  6
BYLAYER
100
AcDbLine
 10
163.5656011803127967
 20
210.0
 30
0.0
 11
162.9882509111231457
 21
208.9999999999999147
 31
0.0
  0
LINE
  5
110
100
AcDbEntity
  8
Laser Cuts 1
 62
256
370
-1
 48
1.0
  6
BYLAYER
100
AcDbLine
 10
218.2169144089561996
 20
180.0
 30
0.0
 11
217.6395641397665486
 21
180.9999999999999432
 31
0.0
  0
LINE
  5
111
100
AcDbEntity
  8
Laser Cuts 1
 62
256
370
-1
 48
1.0
  6
BYLAYER
100
AcDbLine
 10
54.2629747230260051
 20
149.9999999999999432
 30
0.0
 11
53.6856244538363541
 21
150.9999999999999432
 31
0.0
  0
LINE
  5
112
100
AcDbEntity
  8
Laser Cuts 1
 62
256
370
-1
 48
1.0
  6
BYLAYER
100
AcDbLine
 10
108.914287951669408
 20
179.9999999999999432
 30
0.0
 11
108.336937682479757
 21
178.9999999999999432
 31
0.0
  0
LINE
  5
113
100
AcDbEntity
  8
Laser Cuts 1
 62
256
370
-1
 48
1.0
  6
BYLAYER
100
AcDbLine
 10
163.5656011803127967
 20
149.9999999999999432
 30
0.0
 11
162.9882509111231457
 21
150.9999999999999432
 31
0.0
  0
LINE
  5
114
100
AcDbEntity
  8
Laser Cuts 1
 62
256
370
-1
 48
1.0
  6
BYLAYER
100
AcDbLine
 10
218.2169144089561996
 20
179.9999999999999432
 30
0.0
 11
217.6395641397665486
 21
178.9999999999999432
 31
0.0
  0
LINE
  5
115
100
AcDbEntity
  8
Laser Cuts 1
 62
256
370
-1
 48
1.0
  6
BYLAYER
100
AcDbLine
 10
272.8682276375995457
 20
149.9999999999999432
 30
0.0
 11
272.2908773684098946
 21
150.9999999999999432
 31
0.0
  0
LINE
  5
116
100
AcDbEntity
  8
Laser Cuts 1
 62
256
370
-1
 48
1.0
  6
BYLAYER
100
AcDbLine
 10
327.5195408662428918
 20
179.9999999999999432
 30
0.0
 11
326.9421905970532976
 21
178.9999999999999432
 31
0.0
  0
LINE
  5
117
100
AcDbEntity
  8
Laser Cuts 1
 62
256
370
-1
 48
1.0
  6
BYLAYER
100
AcDbLine
 10
54.2629747230260051
 20
149.9999999999999432
 30
0.0
 11
53.6856244538363541
 21
149.0000000000004263
 31
0.0
  0
LINE
  5
118
100
AcDbEntity
  8
Laser Cuts 1
 62
256
370
-1
 48
1.0
  6
BYLAYER
100
AcDbLine
 10
272.8682276375995457
 20
150.0000000000000284
 30
0.0
 11
272.2908773684098946
 21
148.9999999999940883
 31
0.0
  0
LINE
  5
119
100
AcDbEntity
  8
Laser Cuts 1
 62
256
370
-1
 48
1.0
  6
BYLAYER
100
AcDbLine
 10
327.5195408662428918
 20
120.0000000000000284
 30
0.0
 11
326.9421905970532976
 21
121.0
 31
0.0
  0
LINE
  5
11A
100
AcDbEntity
  8
Laser Cuts 1
 62
256
370
-1
 48
1.0
  6
BYLAYER
100
AcDbLine
 10
108.914287951669408
 20
119.9999999999999432
 30
0.0
 11
108.336937682479757
 21
120.9999999999999432
 31
0.0
  0
LINE
  5
11B
100
AcDbEntity
  8
Laser Cuts 1
 62
256
370
-1
 48
1.0
  6
BYLAYER
100
AcDbLine
 10
163.5656011803127967
 20
150.0
 30
0.0
 11
162.9882509111231457
 21
148.9999999999999147
 31
0.0
  0
LINE
  5
11C
100
AcDbEntity
  8
Laser Cuts 1
 62
256
370
-1
 48
1.0
  6
BYLAYER
100
AcDbLine
 10
218.2169144089561996
 20
120.0
 30
0.0
 11
217.6395641397665486
 21
120.9999999999999432
 31
0.0
  0
LINE
  5
11D
100
AcDbEntity
  8
Laser Cuts 1
 62
256
370
-1
 48
1.0
  6
BYLAYER
100
AcDbLine
 10
54.2629747230260051
 20
89.9999999999999574
 30
0.0
 11
53.6856244538363541
 21
90.9999999999999574
 31
0.0
  0
LINE
  5
11E
100
AcDbEntity
  8
Laser Cuts 1
 62
256
370
-1
 48
1.0
  6
BYLAYER
100
AcDbLine
 10
108.914287951669408
 20
119.9999999999999432
 30
0.0
 11
108.336937682479757
 21
118.9999999999999574
 31
0.0
  0
LINE
  5
11F
100
AcDbEntity
  8
Laser Cuts 1
 62
256
370
-1
 48
1.0
  6
BYLAYER
100
AcDbLine
 10
163.5656011803127967
 20
89.9999999999999432
 30
0.0
 11
162.9882509111231457
 21
90.9999999999999574
 31
0.0
  0
LINE
  5
120
100
AcDbEntity
  8
Laser Cuts 1
 62
256
370
-1
 48
1.0
  6
BYLAYER
100
AcDbLine
 10
218.2169144089561996
 20
119.9999999999999432
 30
0.0
 11
217.6395641397665486
 21
118.9999999999999432
 31
0.0
  0
LINE
  5
121
100
AcDbEntity
  8
Laser Cuts 1
 62
256
370
-1
 48
1.0
  6
BYLAYER
100
AcDbLine
 10
272.8682276375995457
 20
89.9999999999999432
 30
0.0
 11
272.2908773684098946
 21
90.9999999999999432
 31
0.0
  0
LINE
  5
122
100
AcDbEntity
  8
Laser Cuts 1
 62
256
370
-1
 48
1.0
  6
BYLAYER
100
AcDbLine
 10
327.5195408662428918
 20
119.9999999999999574
 30
0.0
 11
326.9421905970532976
 21
118.9999999999999432
 31
0.0
  0
LINE
  5
123
100
AcDbEntity
  8
Laser Cuts 1
 62
256
370
-1
 48
1.0
  6
BYLAYER
100
AcDbLine
 10
54.2629747230260051
 20
89.9999999999999574
 30
0.0
 11
53.6856244538363541
 21
89.0000000000004405
 31
0.0
  0
LINE
  5
124
100
AcDbEntity
  8
Laser Cuts 1
 62
256
370
-1
 48
1.0
  6
BYLAYER
100
AcDbLine
 10
272.8682276375995457
 20
90.0000000000000284
 30
0.0
 11
272.2908773684098946
 21
88.9999999999940883
 31
0.0
  0
LINE
  5
125
100
AcDbEntity
  8
Laser Cuts 1
 62
256
370
-1
 48
1.0
  6
BYLAYER
100
AcDbLine
 10
327.5195408662428918
 20
60.0000000000000568
 30
0.0
 11
326.9421905970532976
 21
61.0
 31
0.0
  0
LINE
  5
126
100
AcDbEntity
  8
Laser Cuts 1
 62
256
370
-1
 48
1.0
  6
BYLAYER
100
AcDbLine
 10
108.914287951669408
 20
59.9999999999999432
 30
0.0
 11
108.336937682479757
 21
60.9999999999999432
 31
0.0
  0
LINE
  5
127
100
AcDbEntity
  8
Laser Cuts 1
 62
256
370
-1
 48
1.0
  6
BYLAYER
100
AcDbLine
 10
163.5656011803127967
 20
90.0
 30
0.0
 11
162.9882509111231457
 21
88.9999999999999289
 31
0.0
  0
LINE
  5
128
100
AcDbEntity
  8
Laser Cuts 1
 62
256
370
-1
 48
1.0
  6
BYLAYER
100
AcDbLine
 10
218.2169144089561996
 20
60.0
 30
0.0
 11
217.6395641397665486
 21
60.9999999999999432
 31
0.0
  0
LINE
  5
129
100
AcDbEntity
  8
Laser Cuts 1
 62
256
370
-1
 48
1.0
  6
BYLAYER
100
AcDbLine
 10
54.2629747230260193
 20
29.9999999999999716
 30
0.0
 11
53.6856244538363683
 21
30.9999999999999716
 31
0.0
  0
LINE
  5
12A
100
AcDbEntity
  8
Laser Cuts 1
 62
256
370
-1
 48
1.0
  6
BYLAYER
100
AcDbLine
 10
108.914287951669408
 20
59.9999999999999716
 30
0.0
 11
108.336937682479757
 21
58.9999999999999716
 31
0.0
  0
LINE
  5
12B
100
AcDbEntity
  8
Laser Cuts 1
 62
256
370
-1
 48
1.0
  6
BYLAYER
100
AcDbLine
 10
163.5656011803127967
 20
29.9999999999999716
 30
0.0
 11
162.9882509111231457
 21
30.9999999999999716
 31
0.0
  0
LINE
  5
12C
100
AcDbEntity
  8
Laser Cuts 1
 62
256
370
-1
 48
1.0
  6
BYLAYER
100
AcDbLine
 10
218.2169144089561996
 20
59.9999999999999432
 30
0.0
 11
217.6395641397665486
 21
58.9999999999999716
 31
0.0
  0
LINE
  5
12D
100
AcDbEntity
  8
Laser Cuts 1
 62
256
370
-1
 48
1.0
  6
BYLAYER
100
AcDbLine
 10
272.8682276375995457
 20
29.9999999999999432
 30
0.0
 11
272.2908773684098946
 21
30.9999999999999716
 31
0.0
  0
LINE
  5
12E
100
AcDbEntity
  8
Laser Cuts 1
 62
256
370
-1
 48
1.0
  6
BYLAYER
100
AcDbLine
 10
327.5195408662428918
 20
59.9999999999999716
 30
0.0
 11
326.9421905970532976
 21
58.9999999999999432
 31
0.0
  0
LINE
  5
12F
100
AcDbEntity
  8
Laser Cuts 1
 62
256
370
-1
 48
1.0
  6
BYLAYER
100
AcDbLine
 10
54.2629747230260193
 20
29.9999999999999716
 30
0.0
 11
53.6856244538363683
 21
29.0000000000004547
 31
0.0
  0
LINE
  5
130
100
AcDbEntity
  8
Laser Cuts 1
 62
256
370
-1
 48
1.0
  6
BYLAYER
100
AcDbLine
 10
272.8682276375995457
 20
30.0000000000000568
 30
0.0
 11
272.2908773684098946
 21
28.9999999999940883
 31
0.0
  0
LINE
  5
131
100
AcDbEntity
  8
Laser Cuts 1
 62
256
370
-1
 48
1.0
  6
BYLAYER
100
AcDbLine
 10
327.5195408662428918
 20
0.0000000000000568
 30
0.0
 11
326.9421905970532976
 21
1.0000000000000284
 31
0.0
  0
LINE
  5
132
100
AcDbEntity
  8
Laser Cuts 1
 62
256
370
-1
 48
1.0
  6
BYLAYER
100
AcDbLine
 10
108.914287951669408
 20
-0.0000000000000284
 30
0.0
 11
108.336937682479757
 21
0.9999999999999716
 31
0.0
  0
LINE
  5
133
100
AcDbEntity
  8
Laser Cuts 1
 62
256
370
-1
 48
1.0
  6
BYLAYER
100
AcDbLine
 10
163.5656011803127967
 20
30.0000000000000284
 30
0.0
 11
162.9882509111231457
 21
28.9999999999999432
 31
0.0
  0
LINE
  5
134
100
AcDbEntity
  8
Laser Cuts 1
 62
256
370
-1
 48
1.0
  6
BYLAYER
100
AcDbLine
 10
218.2169144089561996
 20
0.0000000000000284
 30
0.0
 11
217.6395641397665486
 21
0.9999999999999716
 31
0.0
  0
ENDSEC
  0
SECTION
  2
OBJECTS
  0
DICTIONARY
  5
C
100
AcDbDictionary
280
0
281
1
  3
ACAD_GROUP
350
D
  3
ACAD_LAYOUT
350
1A
  3
ACAD_MLINESTYLE
350
17
  3
ACAD_PLOTSETTINGS
350
19
  3
ACAD_PLOTSTYLENAME
350
E
  3
AcDbVariableDictionary
350
135
  3
QCAD_OBJECTS
350
136
  0
DICTIONARY
  5
D
100
AcDbDictionary
280
0
281
1
  0
ACDBDICTIONARYWDFLT
  5
E
100
AcDbDictionary
281
1
  3
Normal
350
F
100
AcDbDictionaryWithDefault
340
F
  0
ACDBPLACEHOLDER
  5
F
  0
DICTIONARY
  5
17
100
AcDbDictionary
280
0
281
1
  3
Standard
350
18
  0
MLINESTYLE
  5
18
100
AcDbMlineStyle
  2
STANDARD
 70
0
  3

 62
256
 51
90.0
 52
90.0
 71
2
 49
0.5
 62
256
  6
BYLAYER
 49
-0.5
 62
256
  6
BYLAYER
  0
DICTIONARY
  5
19
100
AcDbDictionary
280
0
281
1
  0
DICTIONARY
  5
1A
100
AcDbDictionary
281
1
  3
Layout1
350
1E
  3
Layout2
350
26
  3
Model
350
22
  0
LAYOUT
  5
1E
100
AcDbPlotSettings
  1

  2
none_device
  4

  6

 40
0.0
 41
0.0
 42
0.0
 43
0.0
 44
0.0
 45
0.0
 46
0.0
 47
0.0
 48
0.0
 49
0.0
140
0.0
141
0.0
142
1.0
143
1.0
 70
688
 72
0
 73
0
 74
5
  7

 75
16
147
1.0
148
0.0
149
0.0
100
AcDbLayout
  1
Layout1
 70
1
 71
1
 10
0.0
 20
0.0
 11
420.0
 21
297.0
 12
0.0
 22
0.0
 32
0.0
 14
100000000000000000000.0
 24
100000000000000000000.0
 34
100000000000000000000.0
 15
-100000000000000000000.0
 25
-100000000000000000000.0
 35
-100000000000000000000.0
146
0.0
 13
0.0
 23
0.0
 33
0.0
 16
1.0
 26
0.0
 36
0.0
 17
0.0
 27
1.0
 37
0.0
 76
0
330
1B
  0
LAYOUT
  5
22
100
AcDbPlotSettings
  1

  2
none_device
  4

  6

 40
0.0
 41
0.0
 42
0.0
 43
0.0
 44
0.0
 45
0.0
 46
0.0
 47
0.0
 48
0.0
 49
0.0
140
0.0
141
0.0
142
1.0
143
1.0
 70
1712
 72
0
 73
0
 74
0
  7

 75
0
147
1.0
148
0.0
149
0.0
100
AcDbLayout
  1
Model
 70
1
 71
0
 10
0.0
 20
0.0
 11
12.0
 21
9.0
 12
0.0
 22
0.0
 32
0.0
 14
0.0
 24
0.0
 34
0.0
 15
0.0
 25
0.0
 35
0.0
146
0.0
 13
0.0
 23
0.0
 33
0.0
 16
1.0
 26
0.0
 36
0.0
 17
0.0
 27
1.0
 37
0.0
 76
0
330
1F
  0
LAYOUT
  5
26
100
AcDbPlotSettings
  1

  2
none_device
  4

  6

 40
0.0
 41
0.0
 42
0.0
 43
0.0
 44
0.0
 45
0.0
 46
0.0
 47
0.0
 48
0.0
 49
0.0
140
0.0
141
0.0
142
1.0
143
1.0
 70
688
 72
0
 73
0
 74
5
  7

 75
16
147
1.0
148
0.0
149
0.0
100
AcDbLayout
  1
Layout2
 70
1
 71
2
 10
0.0
 20
0.0
 11
12.0
 21
9.0
 12
0.0
 22
0.0
 32
0.0
 14
0.0
 24
0.0
 34
0.0
 15
0.0
 25
0.0
 35
0.0
146
0.0
 13
0.0
 23
0.0
 33
0.0
 16
1.0
 26
0.0
 36
0.0
 17
0.0
 27
1.0
 37
0.0
 76
0
330
23
  0
DICTIONARY
  5
135
100
AcDbDictionary
281
1
  3
DIMASSOC
350
138
  3
HIDETEXT
350
137
  0
DICTIONARYVAR
  5
137
100
DictionaryVariables
280
0
  1
2
  0
DICTIONARYVAR
  5
138
100
DictionaryVariables
280
0
  1
1
  0
DICTIONARY
  5
136
100
AcDbDictionary
281
1
  3
ColorSettings/BackgroundColor
350
139
  3
ColorSettings/ColorMode
350
13A
  3
Grid/DisplayGrid00
350
13B
  3
Grid/DisplayGrid01
350
13C
  3
Grid/DisplayGrid02
350
13D
  3
Grid/DisplayGrid03
350
13E
  3
Grid/GridSpacingX00
350
13F
  3
Grid/GridSpacingX01
350
140
  3
Grid/GridSpacingX02
350
141
  3
Grid/GridSpacingX03
350
142
  3
Grid/GridSpacingY00
350
143
  3
Grid/GridSpacingY01
350
144
  3
Grid/GridSpacingY02
350
145
  3
Grid/GridSpacingY03
350
146
  3
Grid/IsometricGrid00
350
147
  3
Grid/IsometricGrid01
350
148
  3
Grid/IsometricGrid02
350
149
  3
Grid/IsometricGrid03
350
14A
  3
Grid/IsometricProjection00
350
14B
  3
Grid/IsometricProjection01
350
14C
  3
Grid/IsometricProjection02
350
14D
  3
Grid/IsometricProjection03
350
14E
  3
Grid/MetaGridSpacingX00
350
14F
  3
Grid/MetaGridSpacingX01
350
150
  3
Grid/MetaGridSpacingX02
350
151
  3
Grid/MetaGridSpacingX03
350
152
  3
Grid/MetaGridSpacingY00
350
153
  3
Grid/MetaGridSpacingY01
350
154
  3
Grid/MetaGridSpacingY02
350
155
  3
Grid/MetaGridSpacingY03
350
156
  3
MultiPageSettings/Columns
350
157
  3
MultiPageSettings/GlueMarginsBottom
350
158
  3
MultiPageSettings/GlueMarginsLeft
350
159
  3
MultiPageSettings/GlueMarginsRight
350
15A
  3
MultiPageSettings/GlueMarginsTop
350
15B
  3
MultiPageSettings/PrintCropMarks
350
15C
  3
MultiPageSettings/Rows
350
15D
  3
PageSettings/OffsetX
350
15E
  3
PageSettings/OffsetY
350
15F
  3
PageSettings/PageOrientation
350
160
  3
PageSettings/PaperHeight
350
161
  3
PageSettings/PaperWidth
350
162
  3
PageSettings/Scale
350
163
  3
PageSettings/ShowPaperBorders
350
164
  3
PageTagSettings/EnablePageTags
350
165
  3
PageTagSettings/TagAlignment
350
166
  3
PageTagSettings/TagFont
350
167
  3
PageTagSettings/TagPosition
350
168
  3
QCADVersion
350
169
  3
UnitSettings/PaperUnit
350
16A
  3
ViewportCenter
350
16B
  3
ViewportHeight
350
16C
  3
ViewportWidth
350
16D
  0
XRECORD
  5
139
330
136
100
AcDbXrecord
280
1
1000
White
  0
XRECORD
  5
13A
330
136
100
AcDbXrecord
280
1
1000
FullColor
  0
XRECORD
  5
13B
330
136
100
AcDbXrecord
280
1
290
1
  0
XRECORD
  5
13C
330
136
100
AcDbXrecord
280
1
290
1
  0
XRECORD
  5
13D
330
136
100
AcDbXrecord
280
1
290
1
  0
XRECORD
  5
13E
330
136
100
AcDbXrecord
280
1
290
1
  0
XRECORD
  5
13F
330
136
100
AcDbXrecord
280
1
1000
auto
  0
XRECORD
  5
140
330
136
100
AcDbXrecord
280
1
1000
auto
  0
XRECORD
  5
141
330
136
100
AcDbXrecord
280
1
1000
auto
  0
XRECORD
  5
142
330
136
100
AcDbXrecord
280
1
1000
auto
  0
XRECORD
  5
143
330
136
100
AcDbXrecord
280
1
1000
auto
  0
XRECORD
  5
144
330
136
100
AcDbXrecord
280
1
1000
auto
  0
XRECORD
  5
145
330
136
100
AcDbXrecord
280
1
1000
auto
  0
XRECORD
  5
146
330
136
100
AcDbXrecord
280
1
1000
auto
  0
XRECORD
  5
147
330
136
100
AcDbXrecord
280
1
290
0
  0
XRECORD
  5
148
330
136
100
AcDbXrecord
280
1
290
0
  0
XRECORD
  5
149
330
136
100
AcDbXrecord
280
1
290
0
  0
XRECORD
  5
14A
330
136
100
AcDbXrecord
280
1
290
0
  0
XRECORD
  5
14B
330
136
100
AcDbXrecord
280
1
 90
65537
  0
XRECORD
  5
14C
330
136
100
AcDbXrecord
280
1
 90
65537
  0
XRECORD
  5
14D
330
136
100
AcDbXrecord
280
1
 90
65537
  0
XRECORD
  5
14E
330
136
100
AcDbXrecord
280
1
 90
65537
  0
XRECORD
  5
14F
330
136
100
AcDbXrecord
280
1
1000
auto
  0
XRECORD
  5
150
330
136
100
AcDbXrecord
280
1
1000
auto
  0
XRECORD
  5
151
330
136
100
AcDbXrecord
280
1
1000
auto
  0
XRECORD
  5
152
330
136
100
AcDbXrecord
280
1
1000
auto
  0
XRECORD
  5
153
330
136
100
AcDbXrecord
280
1
1000
auto
  0
XRECORD
  5
154
330
136
100
AcDbXrecord
280
1
1000
auto
  0
XRECORD
  5
155
330
136
100
AcDbXrecord
280
1
1000
auto
  0
XRECORD
  5
156
330
136
100
AcDbXrecord
280
1
1000
auto
  0
XRECORD
  5
157
330
136
100
AcDbXrecord
280
1
 90
1
  0
XRECORD
  5
158
330
136
100
AcDbXrecord
280
1
 40
0.5
  0
XRECORD
  5
159
330
136
100
AcDbXrecord
280
1
 40
0.5
  0
XRECORD
  5
15A
330
136
100
AcDbXrecord
280
1
 40
0.5
  0
XRECORD
  5
15B
330
136
100
AcDbXrecord
280
1
 40
0.5
  0
XRECORD
  5
15C
330
136
100
AcDbXrecord
280
1
290
0
  0
XRECORD
  5
15D
330
136
100
AcDbXrecord
280
1
 90
1
  0
XRECORD
  5
15E
330
136
100
AcDbXrecord
280
1
 40
0.0
  0
XRECORD
  5
15F
330
136
100
AcDbXrecord
280
1
 40
0.0
  0
XRECORD
  5
160
330
136
100
AcDbXrecord
280
1
1000
Portrait
  0
XRECORD
  5
161
330
136
100
AcDbXrecord
280
1
 40
11.0
  0
XRECORD
  5
162
330
136
100
AcDbXrecord
280
1
 40
8.5
  0
XRECORD
  5
163
330
136
100
AcDbXrecord
280
1
1000
1:1
  0
XRECORD
  5
164
330
136
100
AcDbXrecord
280
1
290
1
  0
XRECORD
  5
165
330
136
100
AcDbXrecord
280
1
290
0
  0
XRECORD
  5
166
330
136
100
AcDbXrecord
280
1
1000
Inside
  0
XRECORD
  5
167
330
136
100
AcDbXrecord
280
1
1000
Arial,10,-1,5,50,0,0,0,0,0
  0
XRECORD
  5
168
330
136
100
AcDbXrecord
280
1
1000
TopLeft
  0
XRECORD
  5
169
330
136
100
AcDbXrecord
280
1
1000
3.28.1
  0
XRECORD
  5
16A
330
136
100
AcDbXrecord
280
1
 90
4
  0
XRECORD
  5
16C
330
136
100
AcDbXrecord
280
1
 40
191.1669104215701225
  0
XRECORD
  5
16D
330
136
100
AcDbXrecord
280
1
 40
351.9941285992674693
  0
ENDSEC
  0
EOF
